<svg width="1058" height="133" viewBox="0 0 1058 133" fill="none" xmlns="http://www.w3.org/2000/svg">
<path d="M3.10638 107L32.3063 25.3305H49.7585L78.9585 107H62.5229L55.8583 88.0793H26.4324L19.6549 107H3.10638ZM30.1601 73.677H51.8483L41.0607 41.2013L30.1601 73.677ZM91.2216 107V25.3305H120.817C131.51 25.3305 139.436 27.1755 144.595 30.8655C149.791 34.5179 152.389 39.8081 152.389 46.7363C152.389 50.8028 151.354 54.3422 149.283 57.3544C147.212 60.329 143.522 62.9271 138.213 65.1486C141.639 66.0146 144.407 67.1819 146.515 68.6504C148.624 70.1188 150.243 71.7567 151.372 73.5641C152.502 75.3338 153.274 77.1976 153.688 79.1556C154.102 81.0759 154.309 82.9773 154.309 84.86C154.309 92.3906 151.749 97.9633 146.628 101.578C141.507 105.193 133.355 107 122.172 107H91.2216ZM107.657 94.2356H122.511C127.481 94.2356 131.228 93.2378 133.751 91.2422C136.311 89.2466 137.591 86.5732 137.591 83.2221C137.591 80.8123 136.97 78.7979 135.728 77.1788C134.485 75.522 132.791 74.2795 130.644 73.4511C128.536 72.6228 126.126 72.2086 123.415 72.2086H107.657V94.2356ZM107.657 59.1053H123.415C125.109 59.1053 126.728 58.917 128.272 58.5405C129.854 58.1263 131.247 57.5051 132.452 56.6767C133.694 55.8483 134.673 54.794 135.389 53.5138C136.104 52.196 136.462 50.6522 136.462 48.8825C136.462 45.3431 135.125 42.6697 132.452 40.8624C129.816 39.0174 126.427 38.0949 122.285 38.0949H107.657V59.1053ZM201.706 108.13C194.1 108.13 187.53 106.36 181.995 102.821C176.46 99.2811 172.186 94.3109 169.174 87.9099C166.199 81.5089 164.712 74.0347 164.712 65.4875C164.712 56.9026 166.199 49.5414 169.174 43.404C172.149 37.2289 176.403 32.4846 181.938 29.1711C187.473 25.8577 194.063 24.2009 201.706 24.2009C207.844 24.2009 213.303 25.4435 218.085 27.9286C222.905 30.376 226.783 33.7271 229.72 37.9819C232.695 42.2367 234.446 47.0375 234.973 52.3842H217.69C217.163 49.5603 216.203 47.0563 214.81 44.8725C213.416 42.6509 211.59 40.9189 209.331 39.6763C207.072 38.3961 204.361 37.756 201.198 37.756C197.395 37.756 194.119 38.6785 191.37 40.5235C188.622 42.3685 186.513 45.3431 185.045 49.4473C183.576 53.5515 182.842 58.9735 182.842 65.7134C182.842 75.8797 184.461 83.2409 187.699 87.7969C190.975 92.3153 195.475 94.5745 201.198 94.5745C204.361 94.5745 207.072 93.8591 209.331 92.4283C211.59 90.9598 213.416 89.0395 214.81 86.6673C216.203 84.2576 217.163 81.6218 217.69 78.7602H234.973C234.483 82.6385 233.542 86.3473 232.149 89.8867C230.756 93.3884 228.779 96.5136 226.218 99.2623C223.658 102.011 220.363 104.176 216.334 105.757C212.306 107.339 207.43 108.13 201.706 108.13Z" fill="white"/>
<path d="M382.543 107V25.3305C382.957 25.3305 384.105 25.3305 385.988 25.3305C387.908 25.3305 390.148 25.3305 392.709 25.3305C395.307 25.3305 397.886 25.3493 400.447 25.387C403.045 25.387 405.21 25.4058 406.942 25.4435C416.844 25.6694 424.921 27.4391 431.171 30.7526C437.422 34.066 441.997 38.6973 444.896 44.6465C447.833 50.5957 449.301 57.6368 449.301 65.7699C449.301 74.2418 447.758 81.5654 444.67 87.7405C441.583 93.8779 436.857 98.6222 430.494 101.973C424.168 105.324 416.129 107 406.377 107H382.543ZM399.148 93.6708H406.716C411.385 93.6708 415.621 92.7671 419.424 90.9598C423.264 89.1524 426.333 86.1967 428.63 82.0925C430.927 77.9883 432.075 72.5098 432.075 65.6569C432.075 59.2936 431.058 54.1351 429.025 50.1815C426.992 46.1903 424.093 43.2722 420.327 41.4272C416.562 39.5822 412.1 38.6597 406.942 38.6597H399.148V93.6708ZM463.842 107V25.3305H519.926L519.87 39.2245H480.391V59.0488H514.674V72.6604H480.278V92.9366L520.491 92.9931V107H463.842ZM566.929 108.13C562.862 108.13 558.89 107.621 555.012 106.605C551.134 105.588 547.594 104.063 544.394 102.03C541.193 99.9965 538.557 97.4549 536.486 94.4051C534.453 91.3552 533.229 87.7781 532.815 83.6739H549.703C550.267 86.159 551.341 88.2488 552.922 89.9432C554.541 91.6376 556.612 92.9366 559.135 93.8403C561.695 94.7439 564.613 95.1958 567.889 95.1958C570.487 95.1958 572.953 94.8192 575.288 94.0662C577.622 93.3131 579.524 92.1647 580.992 90.6209C582.461 89.0771 583.195 87.138 583.195 84.8035C583.195 82.0172 582.178 79.9275 580.145 78.5343C578.112 77.1035 575.344 75.9739 571.843 75.1455L556.537 71.8132C552.207 70.9095 548.422 69.5164 545.184 67.6337C541.984 65.7134 539.518 63.2283 537.785 60.1784C536.053 57.0909 535.187 53.3444 535.187 48.939C535.187 43.8558 536.581 39.4692 539.367 35.7792C542.191 32.0892 546.013 29.2653 550.832 27.3073C555.69 25.3117 561.13 24.3139 567.155 24.3139C573.97 24.3139 579.712 25.4246 584.381 27.6462C589.088 29.8301 592.684 32.8046 595.169 36.5699C597.654 40.2976 598.915 44.4583 598.953 49.0519H582.461C582.16 46.228 581.294 43.9688 579.863 42.2744C578.432 40.5424 576.587 39.2998 574.328 38.5467C572.106 37.756 569.565 37.3607 566.703 37.3607C561.77 37.3607 558.175 38.3585 555.915 40.3541C553.656 42.3497 552.527 44.6654 552.527 47.3011C552.527 49.7862 553.374 51.8006 555.068 53.3444C556.8 54.8505 559.568 55.9989 563.371 56.7896L577.547 59.8395C582.819 60.8562 587.092 62.4753 590.368 64.6968C593.644 66.8807 596.035 69.5352 597.541 72.6604C599.047 75.7856 599.8 79.2873 599.8 83.1656C599.8 88.0982 598.388 92.4471 595.564 96.2124C592.778 99.9401 588.918 102.858 583.986 104.967C579.053 107.075 573.368 108.13 566.929 108.13ZM614.418 107V25.3305H630.853V107H614.418ZM682.206 108.13C674.713 108.13 668.199 106.435 662.664 103.046C657.167 99.62 652.912 94.7816 649.9 88.5312C646.926 82.2808 645.438 74.9008 645.438 66.3912C645.438 57.731 647.001 50.2568 650.126 43.9688C653.289 37.6431 657.694 32.767 663.342 29.3406C668.99 25.9141 675.579 24.2009 683.11 24.2009C687.967 24.2009 692.392 24.9728 696.383 26.5166C700.374 28.0604 703.838 30.1689 706.775 32.8423C709.75 35.5157 712.065 38.5467 713.722 41.9355C715.416 45.2866 716.339 48.7695 716.49 52.3842H699.094C698.604 49.7862 697.625 47.414 696.157 45.2678C694.726 43.1216 692.881 41.4084 690.622 40.1282C688.363 38.8103 685.727 38.1514 682.715 38.1514C679.1 38.1514 675.824 39.0927 672.887 40.9754C669.95 42.8204 667.635 45.7761 665.94 49.8427C664.246 53.9092 663.399 59.2747 663.399 65.9393C663.399 71.3237 663.945 75.8044 665.037 79.3815C666.166 82.9585 667.672 85.8013 669.555 87.9099C671.438 89.9808 673.584 91.4493 675.994 92.3153C678.403 93.1813 680.87 93.6143 683.392 93.6143C685.802 93.6143 687.949 93.219 689.831 92.4283C691.751 91.5999 693.389 90.5456 694.745 89.2654C696.1 87.9852 697.174 86.592 697.964 85.0859C698.755 83.5421 699.263 82.036 699.489 80.5676L700.11 75.5973H683.223V64.1885L717.393 64.3579V107H706.154V96.3254C704.761 98.1704 703.029 100.015 700.958 101.86C698.924 103.668 696.383 105.174 693.333 106.379C690.321 107.546 686.612 108.13 682.206 108.13ZM734.878 107V25.3305H751.201L788.477 79.3815V25.3305H804.969V107H790.115L751.314 50.8028V107H734.878Z" fill="white"/>
<path d="M307.5 21.9642L318.517 51.7378L348.291 62.755L318.517 73.7723L307.5 103.546L296.483 73.7723L266.709 62.755L296.483 51.7378L307.5 21.9642Z" fill="white"/>
<path d="M922.5 62.7551H894.26V90.9949H922.5V62.7551Z" fill="white"/>
<path d="M869.158 25.1021H840.918V53.3418H869.158V25.1021Z" fill="white"/>
<path d="M950.739 28.2399H922.5V56.4797H950.739V28.2399Z" fill="white"/>
<path d="M1057.42 78.4438H972.704V106.684H1057.42V78.4438Z" fill="white"/>
</svg>
