<svg width="391" height="17" viewBox="0 0 391 17" fill="none" xmlns="http://www.w3.org/2000/svg">
<path d="M317.157 2.79994e-05C323.504 -0.00608509 328.206 0.989301 332.082 2.4971C335.951 4.00223 338.979 6.01137 341.96 7.98831C344.947 9.96957 347.889 11.9189 351.641 13.3809C355.386 14.8402 359.959 15.8203 366.191 15.8203C372.317 15.8203 376.838 14.8758 380.546 13.461C384.259 12.0439 387.178 10.1482 390.11 8.20608L390.399 8.64163L390.688 9.07718C387.755 11.0193 384.751 12.974 380.919 14.4366C377.081 15.9013 372.431 16.8653 366.191 16.8653C359.842 16.8652 355.139 15.8653 351.262 14.3545C347.391 12.8464 344.364 10.8352 341.383 8.85843C338.395 6.87715 335.454 4.92973 331.703 3.47073C327.959 2.01452 323.388 1.03797 317.158 1.04397C310.928 1.04999 306.37 2.03563 302.646 3.49905C298.916 4.96522 296.002 6.91863 293.041 8.9053C290.087 10.8875 287.086 12.9031 283.236 14.417C279.379 15.9338 274.69 16.9403 268.343 16.9483C261.995 16.9562 257.29 15.9556 253.408 14.4395C249.533 12.926 246.497 10.9053 243.506 8.91702C240.508 6.92429 237.555 4.963 233.79 3.49319C230.131 2.06477 225.686 1.09557 219.688 1.04788C213.715 1.09629 209.296 2.06292 205.661 3.48538C201.929 4.94586 199.004 6.89199 196.032 8.87112C193.067 10.8458 190.055 12.8538 186.205 14.3594C182.348 15.8677 177.668 16.8652 171.351 16.8653C165.033 16.8653 160.352 15.8645 156.494 14.3535C152.643 12.8454 149.63 10.8351 146.665 8.85843C143.693 6.87727 140.767 4.92952 137.036 3.47073C133.312 2.01472 128.764 1.03804 122.566 1.04397C116.368 1.04999 111.834 2.03589 108.13 3.49905C104.419 4.965 101.52 6.91767 98.5742 8.90432C95.6353 10.8865 92.6491 12.9028 88.8184 14.417C84.9805 15.934 80.3146 16.9403 73.999 16.9483C67.6831 16.9562 63.0008 15.9549 59.1377 14.4385C55.282 12.9249 52.2606 10.9042 49.2852 8.91604C46.3029 6.92343 43.365 4.96275 39.6201 3.49319C35.882 2.02636 31.3183 1.04142 25.1045 1.04397C18.8491 1.04665 14.2258 2.04584 10.4238 3.52835C6.61497 5.0136 3.61076 6.99079 0.576172 8.99319L0.288086 8.55765L0 8.12112C3.02853 6.12271 6.11828 4.08554 10.0439 2.55472C13.9767 1.02118 18.7302 0.0027031 25.1045 2.79994e-05C31.4365 -0.00257948 36.1309 1.00154 40.002 2.52054C43.8657 4.03675 46.8905 6.05962 49.8662 8.04788C52.8486 10.0406 55.7826 11.9999 59.5195 13.4668C63.2494 14.9309 67.8006 15.9112 73.998 15.9033C80.1958 15.8955 84.7305 14.9094 88.4346 13.4453C92.1455 11.9785 95.0446 10.0247 97.9902 8.03811C100.929 6.05596 103.915 4.04061 107.746 2.52737C111.584 1.01137 116.25 0.00616185 122.565 2.79994e-05C128.881 -0.00601188 133.559 0.989131 137.416 2.4971C141.266 4.00236 144.279 6.0115 147.244 7.98831C150.216 9.96958 153.143 11.9191 156.875 13.3809C160.6 14.8399 165.15 15.8203 171.351 15.8203C177.551 15.8203 182.1 14.8421 185.824 13.3858C189.556 11.9266 192.482 9.98106 195.453 8.00198C198.418 6.0273 201.43 4.01861 205.28 2.51175C208.945 1.07763 213.351 0.104839 219.199 0.00881706V2.79994e-05C219.363 -3.96084e-05 219.526 0.00266965 219.688 0.00393425C219.836 0.00276105 219.985 9.0799e-05 220.135 2.79994e-05V0.0078405C226.029 0.0992075 230.473 1.07719 234.17 2.52054C238.053 4.0366 241.094 6.05851 244.085 8.0469C247.083 10.0396 250.032 11.9988 253.788 13.4658C257.538 14.9302 262.112 15.9111 268.342 15.9033C274.572 15.8955 279.13 14.9087 282.854 13.4444C286.584 11.9773 289.498 10.0238 292.459 8.03714C295.413 6.05494 298.414 4.03949 302.264 2.5264C306.121 1.01054 310.81 0.00616013 317.157 2.79994e-05Z" fill="#F672C6"/>
</svg>
