<svg width="391" height="40" viewBox="0 0 391 40" fill="none" xmlns="http://www.w3.org/2000/svg">
<path d="M220.092 0.000115212C232.833 0.0391745 238.808 9.91739 244.609 19.4357C250.476 29.0616 256.169 38.3279 268.238 38.3566C280.308 38.3848 286.05 29.1478 291.97 19.548C297.823 10.0553 303.854 0.200421 316.599 0.200311C329.347 0.200436 335.224 10.0393 340.928 19.5216C346.696 29.111 352.291 38.3441 364.362 38.3566V38.879L364.363 38.3566C376.952 38.3684 383.028 29.3333 389.184 19.8839L390.059 20.4542C384.046 29.6842 377.788 39.1142 364.977 39.3946L364.361 39.4015C351.613 39.3883 345.736 29.5429 340.032 20.0607C334.264 10.4714 328.67 1.24536 316.599 1.24523C304.524 1.24534 298.778 10.4969 292.858 20.0968C287.005 29.5896 280.977 39.4316 268.235 39.4015C255.494 39.3713 249.519 29.4978 243.718 19.9796C237.851 10.3536 232.158 1.08204 220.089 1.04504C208.01 1.00821 201.834 10.3136 195.468 19.9689C189.172 29.5175 182.686 39.4144 169.924 39.4015C169.874 39.4014 169.823 39.3989 169.773 39.3986V39.4015C157.023 39.3883 150.991 29.5484 145.136 20.0655C139.215 10.4768 133.469 1.24527 121.387 1.24523C109.305 1.24534 103.557 10.4971 97.6348 20.0968C91.7781 29.5898 85.7457 39.4315 72.998 39.4015C60.2504 39.3712 54.2718 29.498 48.4678 19.9796C42.5982 10.3537 36.9023 1.08208 24.8262 1.04504C12.6423 1.00793 6.89081 10.4673 0.890625 20.214L0.445312 19.9405L0 19.6661C5.92677 10.0387 11.9677 -0.0392946 24.8301 0.000115212C37.5775 0.0393532 43.5564 9.91732 49.3604 19.4357C55.2298 29.0614 60.9251 38.328 73.001 38.3566C85.0771 38.3849 90.8225 29.1477 96.7451 19.548C102.602 10.0552 108.635 0.200417 121.387 0.200311C121.614 0.200311 121.839 0.203879 122.062 0.210076V0.200311C128.243 0.200313 132.814 2.65638 136.563 6.30676C140.291 9.93629 143.224 14.7651 146.138 19.5177C152.015 29.1031 157.821 38.3441 169.925 38.3566C182.037 38.3688 188.23 29.0484 194.596 19.3937C200.891 9.84614 207.361 -0.0385681 220.092 0.000115212Z" fill="#1570F4"/>
</svg>
