<svg width="2128" height="1362" viewBox="0 0 2128 1362" fill="none" xmlns="http://www.w3.org/2000/svg">
<path d="M1.05223 1342.3C312.288 1035.97 1165.15 920.692 2119.83 929.231" stroke="#FFFDF9" stroke-width="3"/>
<path d="M1.69623 1270.3C312.931 964.092 1165.15 920.692 2119.83 929.231" stroke="#FFFDF9" stroke-width="3"/>
<path d="M2.33129 1199.3C313.571 892.521 1165.15 920.985 2119.83 929.525" stroke="#FFFDF9" stroke-width="3"/>
<path d="M2.99279 1125.31C314.206 821.497 1165.14 921.878 2119.82 930.417" stroke="#FFFDF9" stroke-width="3"/>
<path d="M3.62791 1054.31C314.844 750.139 1165.14 921.132 2119.83 929.671" stroke="#FFFDF9" stroke-width="3"/>
<path d="M4.26328 983.311C315.479 679.2 1165.14 921.501 2119.82 930.04" stroke="#FFFDF9" stroke-width="3"/>
<path d="M4.9158 910.314C316.164 602.586 1165.15 920.691 2119.83 929.231" stroke="#FFFDF9" stroke-width="3"/>
<path d="M5.55627 838.756C316.781 533.703 1165.15 920.692 2119.83 929.231" stroke="#FFFDF9" stroke-width="3"/>
<path d="M6.18389 768.583C317.398 464.681 1165.15 920.692 2119.83 929.232" stroke="#FFFDF9" stroke-width="3"/>
<path d="M6.81599 697.894C318.173 392.403 1164.75 920.688 2119.83 929.231" stroke="#FFFDF9" stroke-width="3"/>
<path d="M7.45033 626.991C318.8 322.322 1164.75 920.689 2119.83 929.232" stroke="#FFFDF9" stroke-width="3"/>
<path d="M8.09537 554.895C319.45 249.682 1164.75 920.688 2119.83 929.231" stroke="#FFFDF9" stroke-width="3"/>
<path d="M8.74339 482.448C320.093 177.848 1164.75 920.688 2119.83 929.232" stroke="#FFFDF9" stroke-width="3"/>
<path d="M9.39507 409.558C320.757 103.547 1164.75 920.689 2119.83 929.232" stroke="#FFFDF9" stroke-width="3"/>
<path d="M10.0277 338.828C321.384 33.3846 1164.75 920.688 2119.83 929.231" stroke="#FFFDF9" stroke-width="3"/>
<path d="M10.673 266.712C322.028 -38.547 1164.75 920.688 2119.83 929.231" stroke="#FFFDF9" stroke-width="3"/>
<path d="M11.4157 183.666C322.772 -121.744 1164.75 920.688 2119.83 929.231" stroke="#FFFDF9" stroke-width="3"/>
<path d="M12.0225 115.85C323.383 -190.062 1164.75 920.688 2119.83 929.231" stroke="#FFFDF9" stroke-width="3"/>
<path d="M12.5916 52.2086C323.948 -253.244 1164.75 920.689 2119.83 929.232" stroke="#FFFDF9" stroke-width="3"/>
</svg>
