<svg width="2644" height="955" viewBox="0 0 2644 955" fill="none" xmlns="http://www.w3.org/2000/svg">
<path d="M2632.13 521.531C2238.6 153.149 1208.45 916.593 27.123 953.339" stroke="#FFFDF9" stroke-width="3"/>
<path d="M2629.35 432.357C2235.8 63.303 1208.45 916.592 27.1233 953.339" stroke="#FFFDF9" stroke-width="3"/>
<path d="M2626.57 342.749C2233.04 -25.5474 1208.45 916.593 27.1228 953.339" stroke="#FFFDF9" stroke-width="3"/>
<path d="M2623.76 252.592C2230.18 -117.449 1208.45 916.593 27.1233 953.339" stroke="#FFFDF9" stroke-width="3"/>
<path d="M2621.04 165.107C2227.48 -204.232 1208.45 916.592 27.1236 953.338" stroke="#FFFDF9" stroke-width="3"/>
<path d="M2618.27 75.9081C2224.71 -293.203 1208.45 916.592 27.1235 953.339" stroke="#FFFDF9" stroke-width="3"/>
<path d="M2632.13 521.531C2238.6 153.149 1208.45 916.593 27.123 953.339" stroke="#FFFDF9" stroke-width="3"/>
<path d="M2629.35 432.357C2235.8 63.303 1208.45 916.592 27.1233 953.339" stroke="#FFFDF9" stroke-width="3"/>
<path d="M2626.57 342.749C2233.04 -25.5474 1208.45 916.593 27.1228 953.339" stroke="#FFFDF9" stroke-width="3"/>
<path d="M2623.76 252.592C2230.18 -117.449 1208.45 916.593 27.1233 953.339" stroke="#FFFDF9" stroke-width="3"/>
<path d="M2621.04 165.107C2227.48 -204.232 1208.45 916.592 27.1236 953.338" stroke="#FFFDF9" stroke-width="3"/>
<path d="M2618.27 75.9081C2224.71 -293.203 1208.45 916.592 27.1235 953.339" stroke="#FFFDF9" stroke-width="3"/>
</svg>
