<svg xmlns="http://www.w3.org/2000/svg" viewBox="0 0 1562 591" preserveAspectRatio="xMidYMid meet" role="img" aria-label="ABC kinetic primary vector">
  <title>ABC kinetic vector — yellow/pink/orange primary</title>
  <desc>Static export of the primary kinetic vector (yellow, orange, pink) — full bleed hero artwork.</desc>
  <defs>
    <linearGradient id="grad_yo_a" x1="967.519" y1="0" x2="0.519" y2="0" gradientUnits="userSpaceOnUse">
      <stop offset="0.05" stop-color="#F0CE2E"/>
      <stop offset="1" stop-color="#F25E08"/>
    </linearGradient>
    <linearGradient id="grad_yo_b" x1="967.519" y1="63" x2="0.519" y2="63" gradientUnits="userSpaceOnUse">
      <stop offset="0.05" stop-color="#F0CE2E"/>
      <stop offset="1" stop-color="#F25E08"/>
    </linearGradient>
    <linearGradient id="grad_yo_c" x1="967.519" y1="126" x2="0.519" y2="126" gradientUnits="userSpaceOnUse">
      <stop offset="0.05" stop-color="#F0CE2E"/>
      <stop offset="1" stop-color="#F25E08"/>
    </linearGradient>
    <linearGradient id="grad_yo_d" x1="967.519" y1="314" x2="0.519" y2="314" gradientUnits="userSpaceOnUse">
      <stop offset="0.05" stop-color="#F0CE2E"/>
      <stop offset="1" stop-color="#F25E08"/>
    </linearGradient>
    <linearGradient id="grad_yo_e" x1="967.519" y1="409" x2="0.519" y2="409" gradientUnits="userSpaceOnUse">
      <stop offset="0.05" stop-color="#F0CE2E"/>
      <stop offset="1" stop-color="#F25E08"/>
    </linearGradient>
    <linearGradient id="grad_pink" x1="967.519" y1="346" x2="0.519" y2="346" gradientUnits="userSpaceOnUse">
      <stop stop-color="#F7A0D3"/>
      <stop offset="1" stop-color="#F672C6"/>
    </linearGradient>
  </defs>
  <g fill="none">
    <path d="M0.519 32.36C141.561 167.967 531.011 190.36 967.519 190.36" stroke="#111" stroke-opacity="0.5" stroke-width="0.5" opacity="0.55"/>
    <path d="M0.519 0.36C141.561 136.307 531.011 190.36 967.519 190.36" stroke="url(#grad_yo_a)"/>
    <path d="M0.519 63.36C141.561 199.392 531.011 190.231 967.519 190.231" stroke="url(#grad_yo_b)" stroke-dasharray="8 4"/>
    <path d="M0.519 95.36C141.561 230.417 531.01 189.551 967.519 189.551" stroke="#F672C6" stroke-width="0.5"/>
    <path d="M0.519 126.36C141.561 260.954 531.01 189.311 967.519 189.311" stroke="url(#grad_yo_c)"/>
    <path d="M0.519 157.36C141.561 293.321 531.011 189.344 967.519 189.344" stroke="#111" stroke-opacity="0.5" stroke-width="0.5" opacity="0.55"/>
    <path d="M0.519 190.36C141.561 325.36 531.011 190.36 967.519 190.36" stroke="#F0CE2E"/>
    <path d="M0.519 221.668C141.561 356.341 531.011 190.36 967.519 190.36" stroke="#111" stroke-opacity="0.5" stroke-width="0.5" opacity="0.55"/>
    <path d="M0.519 252.406C141.561 386.652 531.011 190.36 967.519 190.36" stroke="#F0CE2E"/>
    <path d="M0.519 282.869C141.62 417.113 530.828 190.36 967.519 190.36" stroke="#111" stroke-opacity="0.5" stroke-width="0.5" opacity="0.55"/>
    <path d="M0.519 314.509C141.62 449.222 530.828 190.36 967.519 190.36" stroke="url(#grad_yo_d)" stroke-width="1.5"/>
    <path d="M0.519 346.523C141.62 481.839 530.828 190.36 967.519 190.36" stroke="url(#grad_pink)"/>
    <path d="M0.519 378.356C141.62 513.405 530.828 190.36 967.519 190.36" stroke="#111" stroke-opacity="0.5" stroke-dasharray="3 3" opacity="0.55"/>
    <path d="M0.519 409.614C141.62 544.808 530.828 190.36 967.519 190.36" stroke="url(#grad_yo_e)" stroke-width="1.5"/>
    <path d="M0.519 440.675C141.62 575.671 530.828 190.36 967.519 190.36" stroke="#111" stroke-width="0.5" opacity="0.55"/>
    <path d="M0.519 472.46C141.62 607.47 530.828 190.36 967.519 190.36" stroke="#F672C6" stroke-width="0.5"/>
    <path d="M0.519 509.208C141.62 644.431 530.828 190.36 967.519 190.36" stroke="#111" stroke-opacity="0.5" opacity="0.55"/>
    <path d="M0.519 538.478C141.62 673.732 530.828 190.36 967.519 190.36" stroke="#111" stroke-dasharray="6 12" opacity="0.45"/>
    <path d="M0.519 566.621C141.62 701.766 530.828 190.36 967.519 190.36" stroke="#F0CE2E" stroke-width="1.5"/>
  </g>
  <path d="M1302.28 157.458C1321.42 157.517 1330.4 172.323 1339.25 186.839C1348.15 201.441 1356.91 215.754 1375.51 215.798C1394.11 215.842 1402.94 201.576 1411.92 187.013C1420.85 172.536 1429.92 157.762 1449.06 157.762C1468.21 157.762 1477.05 172.508 1485.75 186.969C1494.5 201.516 1503.11 215.778 1521.71 215.797C1541.09 215.816 1550.43 201.876 1559.78 187.529L1560.13 187.758L1560.48 187.987C1551.17 202.275 1541.6 216.654 1521.71 216.635L1520.82 216.623C1502.29 216.155 1493.59 201.636 1485.03 187.401C1476.28 172.854 1467.67 158.6 1449.06 158.6C1430.46 158.6 1421.62 172.889 1412.64 187.452C1403.71 201.929 1394.64 216.68 1375.5 216.635C1356.37 216.59 1347.38 201.791 1338.53 187.275C1329.63 172.672 1320.87 158.353 1302.27 158.296C1283.67 158.239 1274.17 172.601 1264.51 187.248C1254.91 201.81 1245.15 216.654 1225.97 216.635C1225.9 216.635 1225.82 216.632 1225.75 216.631V216.635C1206.59 216.615 1197.52 201.866 1188.59 187.404C1179.61 172.858 1170.77 158.6 1152.15 158.6C1133.53 158.6 1124.69 172.89 1115.7 187.452C1106.77 201.929 1097.7 216.68 1078.55 216.635C1059.4 216.59 1050.41 201.791 1041.56 187.275C1032.66 172.672 1023.89 158.353 1005.28 158.296C986.507 158.239 977.654 172.849 968.554 187.631L967.841 187.192C976.882 172.505 985.966 157.399 1005.29 157.458C1024.43 157.517 1033.42 172.323 1042.28 186.839C1051.18 201.441 1059.94 215.754 1078.55 215.798C1097.16 215.842 1106 201.575 1114.99 187.013C1123.92 172.536 1133 157.762 1152.15 157.762C1152.49 157.762 1152.84 157.768 1153.18 157.778V157.762C1162.46 157.762 1169.32 161.445 1174.97 166.944C1180.6 172.425 1185.04 179.725 1189.47 186.965C1198.39 201.509 1207.32 215.779 1225.97 215.798C1244.63 215.817 1254.15 201.434 1263.81 186.787C1273.41 172.226 1283.15 157.4 1302.28 157.458Z" fill="#F25E08"/>
  <path d="M967.519 189.711C1005.2 187.206 1042.36 187.999 1120.84 187.996C1273.4 187.989 1265.94 197.765 1418.1 197.746C1490.66 197.737 1526.56 195.522 1560.77 193.206" stroke="#F672C6" stroke-width="2" fill="none"/>
  <path d="M1449.92 174.536C1459.53 174.527 1466.63 176.034 1472.48 178.309C1478.32 180.582 1482.9 183.616 1487.43 186.624C1491.97 189.636 1496.48 192.623 1502.23 194.864C1507.97 197.102 1514.97 198.6 1524.5 198.6C1533.85 198.6 1540.78 197.156 1546.46 194.986C1552.15 192.814 1556.62 189.909 1561.08 186.955L1561.32 187.305L1561.55 187.654C1557.09 190.608 1552.55 193.561 1546.76 195.769C1540.97 197.979 1533.95 199.438 1524.5 199.438C1514.88 199.438 1507.77 197.923 1501.92 195.644C1496.08 193.367 1491.51 190.331 1486.97 187.323C1482.43 184.311 1477.92 181.326 1472.18 179.09C1466.43 176.857 1459.43 175.365 1449.92 175.374C1440.4 175.383 1433.42 176.888 1427.71 179.133C1421.99 181.38 1417.53 184.374 1413.03 187.394C1408.53 190.41 1404 193.454 1398.18 195.739C1392.37 198.028 1385.28 199.552 1375.67 199.564C1366.06 199.576 1358.95 198.061 1353.09 195.774C1347.24 193.488 1342.65 190.436 1338.1 187.41C1333.54 184.381 1329.02 181.377 1323.25 179.125C1317.63 176.932 1310.82 175.447 1301.64 175.377C1292.52 175.454 1285.76 176.932 1280.19 179.112C1274.48 181.35 1269.99 184.332 1265.48 187.341C1260.96 190.346 1256.41 193.377 1250.6 195.651C1244.78 197.926 1237.71 199.438 1228.14 199.438C1218.58 199.438 1211.51 197.923 1205.69 195.644C1199.87 193.366 1195.32 190.33 1190.81 187.322C1186.29 184.31 1181.81 181.326 1176.09 179.09C1170.38 176.857 1163.41 175.365 1153.94 175.374C1144.47 175.384 1137.53 176.889 1131.85 179.133C1126.16 181.38 1121.72 184.373 1117.24 187.393C1112.77 190.409 1108.26 193.454 1102.48 195.739C1096.69 198.028 1089.64 199.552 1080.07 199.564C1070.51 199.576 1063.44 198.06 1057.61 195.773C1051.79 193.487 1047.22 190.436 1042.69 187.41C1038.16 184.381 1033.66 181.376 1027.92 179.124C1022.19 176.874 1015.2 175.37 1005.71 175.374C996.149 175.378 989.07 176.904 983.24 179.177C977.404 181.453 972.804 184.482 968.191 187.527L967.73 186.827C972.338 183.786 977.007 180.709 982.936 178.397C988.871 176.083 996.054 174.54 1005.71 174.536C1015.29 174.532 1022.39 176.053 1028.23 178.345C1034.06 180.634 1038.63 183.688 1043.16 186.714C1047.69 189.743 1052.19 192.745 1057.91 194.993C1063.63 197.239 1070.6 198.738 1080.07 198.726C1089.54 198.714 1096.49 197.206 1102.17 194.96C1107.86 192.712 1112.3 189.719 1116.77 186.698C1121.25 183.682 1125.76 180.638 1131.54 178.354C1137.33 176.067 1144.38 174.546 1153.94 174.536C1163.51 174.527 1170.58 176.035 1176.39 178.31C1182.21 180.583 1186.76 183.616 1191.27 186.624C1195.79 189.636 1200.27 192.623 1205.99 194.864C1211.7 197.101 1218.67 198.6 1228.14 198.6C1237.62 198.6 1244.58 197.105 1250.3 194.871C1256.01 192.635 1260.5 189.653 1265.01 186.645C1269.53 183.64 1274.08 180.608 1279.89 178.332C1285.42 176.169 1292.07 174.694 1300.92 174.548V174.536C1301.16 174.536 1301.4 174.538 1301.64 174.539C1301.87 174.537 1302.11 174.536 1302.35 174.536V174.547C1311.27 174.686 1317.98 176.168 1323.56 178.345C1329.42 180.634 1334.01 183.687 1338.56 186.713C1343.12 189.742 1347.64 192.745 1353.4 194.993C1359.15 197.239 1366.15 198.738 1375.67 198.726C1385.19 198.714 1392.17 197.206 1397.88 194.96C1403.59 192.712 1408.06 189.719 1412.56 186.698C1417.05 183.682 1421.59 180.638 1427.4 178.354C1433.22 176.067 1440.3 174.546 1449.92 174.536Z" fill="#F0CE2E"/>
</svg>
