<svg width="2246" height="789" viewBox="0 0 2246 789" fill="none" xmlns="http://www.w3.org/2000/svg">
<path d="M0.974854 1.1402C212.756 182.165 797.535 254.14 1452.97 254.14" stroke="#FFFDF9" stroke-width="3"/>
<path d="M0.974854 43.1402C212.756 224.236 797.535 254.14 1452.97 254.14" stroke="#FFFDF9" stroke-width="3"/>
<path d="M0.974854 85.1402C212.756 266.159 797.535 253.968 1452.97 253.968" stroke="#FFFDF9" stroke-width="3"/>
<path d="M0.974854 128.14C212.756 307.767 797.535 253.415 1452.97 253.415" stroke="#FFFDF9" stroke-width="3"/>
<path d="M0.974854 169.14C212.756 349.693 797.535 253.587 1452.97 253.587" stroke="#FFFDF9" stroke-width="3"/>
<path d="M0.974854 211.14C212.756 391.774 797.535 253.633 1452.97 253.633" stroke="#FFFDF9" stroke-width="3"/>
<path d="M0.974854 254.14C212.756 434.14 797.535 254.141 1452.97 254.141" stroke="#FFFDF9" stroke-width="3"/>
<path d="M0.974854 295.884C212.756 475.448 797.535 254.14 1452.97 254.14" stroke="#FFFDF9" stroke-width="3"/>
<path d="M0.974854 337.247C212.756 517.064 797.535 254.14 1452.97 254.14" stroke="#FFFDF9" stroke-width="3"/>
<path d="M0.974854 378.171C212.845 558.157 797.261 254.14 1452.97 254.14" stroke="#FFFDF9" stroke-width="3"/>
<path d="M0.974854 420.18C212.845 600.348 797.261 254.14 1452.97 254.14" stroke="#FFFDF9" stroke-width="3"/>
<path d="M0.974854 462.357C212.845 642.779 797.261 254.14 1452.97 254.14" stroke="#FFFDF9" stroke-width="3"/>
<path d="M0.974854 505.085C212.845 685.354 797.261 254.14 1452.97 254.14" stroke="#FFFDF9" stroke-width="3"/>
<path d="M0.974854 547.063C212.845 727.683 797.261 254.14 1452.97 254.14" stroke="#FFFDF9" stroke-width="3"/>
<path d="M0.974854 588.791C212.845 769.269 797.261 254.14 1452.97 254.14" stroke="#FFFDF9" stroke-width="3"/>
<path d="M0.974854 631.187C212.845 811.637 797.261 254.14 1452.97 254.14" stroke="#FFFDF9" stroke-width="3"/>
<path d="M0.974854 679.579C212.845 860.008 797.261 254.14 1452.97 254.14" stroke="#FFFDF9" stroke-width="3"/>
<path d="M0.974854 719.233C212.845 899.936 797.261 254.14 1452.97 254.14" stroke="#FFFDF9" stroke-width="3"/>
<path d="M0.974854 756.765C212.845 937.297 797.262 254.14 1452.97 254.14" stroke="#FFFDF9" stroke-width="3"/>
<path d="M1899.32 210.939C1924.84 211.017 1936.82 230.759 1948.61 250.114C1960.48 269.583 1972.16 288.666 1996.96 288.725C2021.76 288.783 2033.54 269.761 2045.51 250.344C2057.42 231.041 2069.51 211.344 2095.03 211.344C2120.56 211.344 2132.35 231.005 2143.94 250.286C2155.61 269.682 2167.09 288.7 2191.9 288.725C2217.74 288.75 2230.19 270.163 2242.65 251.034L2243.12 251.339L2243.59 251.644C2231.18 270.694 2218.42 289.866 2191.9 289.841H2191.9C2166.37 289.815 2154.59 270.143 2142.99 250.862C2131.32 231.466 2119.84 212.461 2095.03 212.461C2070.23 212.461 2058.44 231.514 2046.46 250.931C2034.56 270.234 2022.47 289.902 1996.96 289.842C1971.44 289.782 1959.46 270.049 1947.66 250.695C1935.79 231.225 1924.11 212.132 1899.32 212.056C1874.51 211.98 1861.84 231.13 1848.96 250.659C1836.16 270.075 1823.15 289.868 1797.58 289.842C1797.48 289.842 1797.38 289.838 1797.28 289.837V289.842C1771.74 289.816 1759.64 270.149 1747.74 250.867C1735.76 231.472 1723.97 212.461 1699.15 212.461C1674.33 212.461 1662.53 231.514 1650.55 250.931C1638.64 270.234 1626.55 289.902 1601.02 289.842C1575.49 289.782 1563.5 270.049 1551.7 250.695C1539.82 231.225 1528.14 212.132 1503.33 212.056C1478.29 211.979 1466.49 231.46 1454.36 251.169L1453.88 250.876L1453.4 250.584C1465.46 231.002 1477.57 210.86 1503.33 210.939C1528.86 211.017 1540.85 230.758 1552.65 250.113C1564.52 269.582 1576.21 288.666 1601.02 288.725C1625.83 288.783 1637.62 269.761 1649.6 250.344C1661.51 231.041 1673.61 211.344 1699.15 211.344C1699.61 211.344 1700.07 211.352 1700.52 211.365V211.344C1712.9 211.344 1722.05 216.255 1729.58 223.586C1737.08 230.895 1743 240.628 1748.92 250.282C1760.81 269.673 1772.72 288.7 1797.58 288.725C1822.46 288.75 1835.16 269.573 1848.03 250.044C1860.83 230.63 1873.81 210.861 1899.32 210.939Z" fill="#FFFDF9"/>
<path d="M1452.97 253.941C1503.22 250.601 1552.76 251.659 1657.41 251.655C1860.81 251.646 1850.87 264.68 2053.75 264.655C2150.5 264.642 2198.37 261.69 2243.97 258.602" stroke="#FFFDF9" stroke-width="3"/>
<path d="M2096.17 233.707C2108.99 233.695 2118.46 235.706 2126.26 238.739C2134.05 241.769 2140.14 245.813 2146.19 249.825C2152.25 253.841 2158.25 257.823 2165.92 260.81C2173.58 263.794 2182.91 265.792 2195.61 265.792C2208.09 265.792 2217.32 263.867 2224.9 260.974C2232.49 258.078 2238.45 254.205 2244.39 250.266L2245.01 251.198C2239.06 255.136 2233.01 259.073 2225.3 262.017C2217.58 264.964 2208.21 266.91 2195.61 266.91C2182.79 266.91 2173.31 264.89 2165.51 261.851C2157.72 258.815 2151.62 254.766 2145.57 250.755C2139.52 246.739 2133.51 242.76 2125.85 239.779C2118.19 236.801 2108.86 234.812 2096.17 234.825C2083.48 234.837 2074.17 236.844 2066.56 239.837C2058.94 242.833 2052.98 246.824 2046.98 250.851C2040.99 254.873 2034.95 258.931 2027.19 261.979C2019.44 265.03 2009.99 267.061 1997.18 267.078C1984.36 267.094 1974.88 265.074 1967.07 262.024C1959.27 258.977 1953.15 254.908 1947.08 250.873C1941.01 246.834 1934.98 242.828 1927.28 239.826C1919.81 236.907 1910.74 234.93 1898.54 234.829C1886.35 234.924 1877.32 236.896 1869.88 239.808C1862.25 242.792 1856.28 246.77 1850.25 250.782C1844.24 254.789 1838.17 258.83 1830.42 261.861C1822.66 264.895 1813.23 266.91 1800.48 266.91C1787.72 266.91 1778.29 264.89 1770.53 261.851C1762.78 258.814 1756.71 254.765 1750.69 250.754C1744.67 246.738 1738.69 242.759 1731.07 239.779C1723.45 236.801 1714.17 234.812 1701.54 234.825C1688.92 234.837 1679.66 236.845 1672.08 239.837C1664.5 242.833 1658.58 246.823 1652.61 250.85C1646.64 254.872 1640.63 258.931 1632.92 261.979C1625.2 265.03 1615.8 267.061 1603.05 267.078C1590.3 267.094 1580.86 265.073 1573.09 262.023C1565.33 258.976 1559.25 254.907 1553.21 250.872C1547.16 246.833 1541.16 242.828 1533.51 239.826C1525.87 236.826 1516.55 234.819 1503.89 234.825C1491.15 234.83 1481.71 236.865 1473.94 239.896C1466.16 242.93 1460.02 246.97 1453.87 251.029L1453.56 250.562L1453.26 250.096C1459.4 246.041 1465.63 241.938 1473.53 238.855C1481.44 235.769 1491.02 233.713 1503.89 233.707C1516.68 233.702 1526.13 235.73 1533.92 238.786C1541.7 241.838 1547.79 245.909 1553.83 249.944C1559.87 253.983 1565.87 257.986 1573.5 260.984C1581.13 263.978 1590.42 265.976 1603.05 265.96C1615.67 265.944 1624.93 263.934 1632.51 260.94C1640.09 257.942 1646.01 253.951 1651.98 249.924C1657.95 245.902 1663.96 241.844 1671.67 238.798C1679.39 235.749 1688.79 233.72 1701.54 233.707C1714.29 233.695 1723.72 235.705 1731.47 238.739C1739.23 241.769 1745.29 245.814 1751.31 249.826C1757.34 253.842 1763.31 257.824 1770.94 260.811C1778.56 263.795 1787.85 265.792 1800.48 265.792C1813.11 265.792 1822.39 263.799 1830.01 260.821C1837.64 257.839 1843.61 253.863 1849.63 249.852C1855.65 245.845 1861.72 241.802 1869.47 238.768C1876.84 235.884 1885.71 233.919 1897.51 233.724V233.707C1897.86 233.707 1898.2 233.71 1898.54 233.712C1898.83 233.71 1899.12 233.708 1899.41 233.707V233.723C1911.31 233.908 1920.26 235.883 1927.69 238.786C1935.51 241.838 1941.63 245.909 1947.7 249.944C1953.78 253.983 1959.8 257.985 1967.48 260.983C1975.14 263.977 1984.48 265.976 1997.17 265.96C2009.86 265.944 2019.17 263.935 2026.79 260.94C2034.41 257.942 2040.36 253.95 2046.36 249.923C2052.36 245.901 2058.4 241.844 2066.15 238.798C2073.91 235.749 2083.35 233.72 2096.17 233.707Z" fill="#FFFDF9"/>
<path d="M1452.97 250.483C1477.16 266.112 1501.93 281.634 1552.29 281.654C1653.74 281.696 1648.78 218.53 1749.97 218.655C1851.16 218.78 1845.14 281.558 1946.33 281.654C2047.52 281.751 2042.35 218.983 2143.58 218.983C2194.74 218.983 2218.71 234.981 2242.97 250.811" stroke="#FFFDF9" stroke-dasharray="8.93 4.47"/>
</svg>
