<svg width="938" height="100" viewBox="0 0 938 100" fill="none" xmlns="http://www.w3.org/2000/svg">
<path d="M660 24L911 24" stroke="black" stroke-opacity="0.5" stroke-width="1.0412" stroke-dasharray="4.16 4.16"/>
<path d="M0 24L394 24" stroke="black" stroke-opacity="0.5" stroke-width="1.0412" stroke-dasharray="4.16 4.16"/>
<path d="M913.036 13.2793L913.718 15.6836L915.684 14.1387L921.516 9.55371L918.958 16.5186L918.097 18.8652L920.595 18.7705L928.008 18.4893L921.846 22.6201L919.77 24.0117L921.846 25.4033L928.008 29.5342L920.595 29.2539L918.097 29.1592L918.958 31.5059L921.516 38.4697L915.684 33.8848L913.718 32.3408L913.036 34.7451L911.012 41.8828L908.988 34.7451L908.306 32.3408L906.341 33.8848L900.507 38.4697L903.065 31.5059L903.928 29.1592L901.43 29.2539L894.016 29.5342L900.179 25.4033L902.255 24.0117L900.179 22.6201L894.016 18.4893L901.43 18.7705L903.928 18.8652L903.065 16.5186L900.507 9.55273L906.341 14.1387L908.306 15.6836L908.988 13.2793L911.012 6.14062L913.036 13.2793Z" fill="#F0CE2E" stroke="#F0CE2E" stroke-width="3.35053"/>
<path d="M398.129 3L403.637 22.6206L423.258 28.129L403.637 33.6374L398.129 53.258L392.621 33.6374L373 28.129L392.621 22.6206L398.129 3Z" fill="#1570F4"/>
<path d="M105.056 88V76.6953H107.331V88H105.056ZM112.42 88.1564C111.336 88.1564 110.491 87.7837 109.887 87.0384C109.282 86.2879 108.98 85.2455 108.98 83.9112C108.98 83.0669 109.103 82.3346 109.347 81.7144C109.592 81.0942 109.955 80.6147 110.434 80.2759C110.914 79.9319 111.5 79.7599 112.193 79.7599C112.485 79.7599 112.756 79.7938 113.006 79.8616C113.262 79.9241 113.494 80.0127 113.702 80.1274C113.911 80.242 114.093 80.3749 114.249 80.5261C114.406 80.6772 114.533 80.8388 114.632 81.0108V76.3826H116.923V88H115.266L115.008 86.3426C114.929 86.5667 114.825 86.7856 114.695 86.9993C114.57 87.213 114.406 87.4084 114.202 87.5857C113.999 87.7576 113.749 87.8958 113.452 88C113.16 88.1042 112.816 88.1564 112.42 88.1564ZM112.92 86.5146C113.494 86.5146 113.921 86.3139 114.202 85.9126C114.489 85.5113 114.632 84.8337 114.632 83.88C114.627 83.3275 114.562 82.8688 114.437 82.504C114.312 82.1392 114.124 81.8682 113.874 81.6909C113.629 81.5085 113.316 81.4173 112.936 81.4173C112.441 81.4173 112.029 81.6076 111.701 81.988C111.372 82.3633 111.208 82.9939 111.208 83.88C111.208 84.7816 111.362 85.4461 111.669 85.8735C111.977 86.3009 112.394 86.5146 112.92 86.5146ZM122.589 88.1564C121.787 88.1564 121.081 87.9896 120.471 87.656C119.866 87.3172 119.395 86.8403 119.056 86.2253C118.717 85.6103 118.548 84.8859 118.548 84.052C118.548 83.2441 118.701 82.517 119.009 81.8708C119.322 81.2193 119.77 80.7059 120.354 80.3306C120.937 79.9502 121.643 79.7599 122.472 79.7599C123.296 79.7599 123.986 79.9345 124.544 80.2837C125.102 80.6277 125.524 81.1098 125.81 81.73C126.097 82.345 126.24 83.0565 126.24 83.8643V84.4819H120.807C120.807 84.8937 120.875 85.2533 121.01 85.5608C121.146 85.8631 121.341 86.0976 121.597 86.2644C121.857 86.426 122.17 86.5068 122.535 86.5068C122.926 86.5068 123.267 86.4234 123.559 86.2566C123.851 86.0898 124.057 85.8162 124.176 85.4357H126.233C126.139 86.009 125.909 86.499 125.545 86.9055C125.18 87.312 124.737 87.6221 124.216 87.8358C123.694 88.0495 123.152 88.1564 122.589 88.1564ZM120.807 83.1216H124.106C124.106 82.7985 124.044 82.5014 123.918 82.2304C123.799 81.9594 123.616 81.7457 123.371 81.5893C123.131 81.433 122.829 81.3548 122.464 81.3548C122.115 81.3548 121.815 81.4408 121.565 81.6128C121.32 81.7795 121.13 81.9984 120.995 82.2695C120.864 82.5405 120.802 82.8245 120.807 83.1216ZM130.239 88.1564C129.728 88.1564 129.264 88.0599 128.848 87.8671C128.436 87.6743 128.11 87.3954 127.87 87.0306C127.631 86.6605 127.511 86.2123 127.511 85.6859C127.511 84.7999 127.842 84.1275 128.504 83.6689C129.165 83.205 130.21 82.9653 131.639 82.9496L132.655 82.934V82.4493C132.655 82.0792 132.545 81.7952 132.327 81.5971C132.113 81.3939 131.777 81.2948 131.318 81.3C130.99 81.3053 130.674 81.3834 130.372 81.5346C130.075 81.6857 129.869 81.9489 129.754 82.3242H127.855C127.886 81.7405 128.055 81.261 128.363 80.8857C128.676 80.5052 129.095 80.2238 129.622 80.0414C130.148 79.8537 130.75 79.7599 131.427 79.7599C132.251 79.7599 132.913 79.8642 133.413 80.0726C133.914 80.2759 134.276 80.5704 134.5 80.9561C134.729 81.3365 134.844 81.79 134.844 82.3164V88H132.936L132.749 86.6084C132.472 87.1921 132.126 87.5961 131.709 87.8202C131.297 88.0443 130.807 88.1564 130.239 88.1564ZM131.013 86.6553C131.216 86.6553 131.414 86.6188 131.607 86.5459C131.805 86.4677 131.983 86.3661 132.139 86.241C132.295 86.1107 132.418 85.9647 132.506 85.8032C132.6 85.6416 132.65 85.4748 132.655 85.3028V84.1067L131.834 84.1223C131.454 84.1275 131.099 84.1744 130.771 84.263C130.442 84.3464 130.177 84.4845 129.973 84.6774C129.775 84.8702 129.676 85.1308 129.676 85.4592C129.676 85.8344 129.804 86.1289 130.059 86.3426C130.32 86.5511 130.638 86.6553 131.013 86.6553Z" fill="black"/>
<path d="M355.443 88L359.485 76.6953H361.901L365.942 88H363.667L362.745 85.381H358.672L357.734 88H355.443ZM359.188 83.3874H362.19L360.697 78.8921L359.188 83.3874ZM367.64 88V76.6953H371.736C373.217 76.6953 374.314 76.9507 375.028 77.4615C375.747 77.967 376.107 78.6993 376.107 79.6583C376.107 80.2212 375.963 80.7111 375.677 81.1281C375.39 81.5398 374.879 81.8994 374.144 82.2069C374.619 82.3268 375.002 82.4884 375.294 82.6916C375.586 82.8949 375.81 83.1216 375.966 83.3718C376.122 83.6168 376.229 83.8747 376.287 84.1458C376.344 84.4116 376.373 84.6748 376.373 84.9354C376.373 85.9778 376.018 86.7491 375.309 87.2495C374.6 87.7498 373.472 88 371.924 88H367.64ZM369.915 86.2332H371.971C372.659 86.2332 373.178 86.095 373.527 85.8188C373.881 85.5426 374.058 85.1725 374.058 84.7087C374.058 84.3751 373.972 84.0963 373.8 83.8721C373.628 83.6428 373.394 83.4708 373.097 83.3562C372.805 83.2415 372.471 83.1842 372.096 83.1842H369.915V86.2332ZM369.915 81.3704H372.096C372.331 81.3704 372.555 81.3444 372.768 81.2922C372.987 81.2349 373.18 81.1489 373.347 81.0342C373.519 80.9196 373.654 80.7736 373.754 80.5964C373.853 80.414 373.902 80.2003 373.902 79.9554C373.902 79.4654 373.717 79.0954 373.347 78.8452C372.982 78.5898 372.513 78.4621 371.94 78.4621H369.915V81.3704ZM382.933 88.1564C381.88 88.1564 380.971 87.9114 380.205 87.4215C379.439 86.9316 378.847 86.2436 378.43 85.3575C378.018 84.4715 377.812 83.4369 377.812 82.2538C377.812 81.0655 378.018 80.0466 378.43 79.197C378.842 78.3423 379.431 77.6856 380.197 77.2269C380.963 76.7683 381.875 76.5389 382.933 76.5389C383.783 76.5389 384.538 76.7109 385.2 77.0549C385.868 77.3937 386.404 77.8576 386.811 78.4465C387.223 79.0355 387.465 79.7 387.538 80.4401H385.146C385.073 80.0492 384.94 79.7026 384.747 79.4003C384.554 79.0928 384.301 78.853 383.989 78.681C383.676 78.5038 383.301 78.4152 382.863 78.4152C382.336 78.4152 381.883 78.5429 381.503 78.7983C381.122 79.0537 380.83 79.4654 380.627 80.0335C380.424 80.6016 380.322 81.3522 380.322 82.2851C380.322 83.6923 380.546 84.7113 380.994 85.3419C381.448 85.9673 382.071 86.2801 382.863 86.2801C383.301 86.2801 383.676 86.181 383.989 85.983C384.301 85.7797 384.554 85.5139 384.747 85.1856C384.94 84.852 385.073 84.4872 385.146 84.091H387.538C387.47 84.6279 387.34 85.1412 387.147 85.6312C386.954 86.1159 386.681 86.5485 386.326 86.9289C385.972 87.3094 385.516 87.6091 384.958 87.828C384.4 88.0469 383.725 88.1564 382.933 88.1564ZM389.551 88V76.6953C389.609 76.6953 389.768 76.6953 390.028 76.6953C390.294 76.6953 390.604 76.6953 390.959 76.6953C391.318 76.6953 391.675 76.6979 392.03 76.7031C392.389 76.7031 392.689 76.7057 392.929 76.7109C394.3 76.7422 395.417 76.9872 396.283 77.4458C397.148 77.9045 397.781 78.5455 398.182 79.369C398.589 80.1925 398.792 81.1671 398.792 82.2929C398.792 83.4656 398.579 84.4793 398.151 85.3341C397.724 86.1836 397.07 86.8403 396.189 87.3042C395.313 87.7681 394.2 88 392.851 88H389.551ZM391.85 86.155H392.898C393.544 86.155 394.13 86.0299 394.657 85.7797C395.188 85.5295 395.613 85.1204 395.931 84.5523C396.249 83.9842 396.408 83.2259 396.408 82.2773C396.408 81.3965 396.267 80.6824 395.986 80.1352C395.704 79.5827 395.303 79.1788 394.782 78.9234C394.26 78.668 393.643 78.5403 392.929 78.5403H391.85V86.155ZM404.229 88.1564C403.427 88.1564 402.72 87.9896 402.111 87.656C401.506 87.3172 401.034 86.8403 400.696 86.2253C400.357 85.6103 400.187 84.8859 400.187 84.052C400.187 83.2441 400.341 82.517 400.649 81.8708C400.961 81.2193 401.41 80.7059 401.993 80.3306C402.577 79.9502 403.283 79.7599 404.112 79.7599C404.935 79.7599 405.626 79.9345 406.184 80.2837C406.741 80.6277 407.164 81.1098 407.45 81.73C407.737 82.345 407.88 83.0565 407.88 83.8643V84.4819H402.447C402.447 84.8937 402.514 85.2533 402.65 85.5608C402.785 85.8631 402.981 86.0976 403.236 86.2644C403.497 86.426 403.81 86.5068 404.174 86.5068C404.565 86.5068 404.907 86.4234 405.199 86.2566C405.49 86.0898 405.696 85.8162 405.816 85.4357H407.872C407.779 86.009 407.549 86.499 407.184 86.9055C406.82 87.312 406.377 87.6221 405.855 87.8358C405.334 88.0495 404.792 88.1564 404.229 88.1564ZM402.447 83.1216H405.746C405.746 82.7985 405.683 82.5014 405.558 82.2304C405.438 81.9594 405.256 81.7457 405.011 81.5893C404.771 81.433 404.469 81.3548 404.104 81.3548C403.755 81.3548 403.455 81.4408 403.205 81.6128C402.96 81.7795 402.77 81.9984 402.634 82.2695C402.504 82.5405 402.442 82.8245 402.447 83.1216ZM412.762 88.1564C412.199 88.1564 411.657 88.0651 411.135 87.8827C410.619 87.6951 410.179 87.4032 409.814 87.0071C409.455 86.6058 409.228 86.0872 409.134 85.4514H411.104C411.177 85.738 411.302 85.9647 411.479 86.1315C411.662 86.2983 411.868 86.4182 412.097 86.4911C412.326 86.5589 412.545 86.5928 412.754 86.5928C413.192 86.5928 413.543 86.525 413.809 86.3895C414.08 86.2488 414.216 86.0351 414.216 85.7484C414.216 85.5295 414.135 85.3549 413.973 85.2246C413.817 85.0943 413.556 84.9953 413.192 84.9276L411.769 84.6305C411.055 84.4793 410.479 84.2239 410.041 83.8643C409.608 83.4995 409.389 82.9835 409.384 82.3164C409.379 81.8317 409.504 81.3965 409.76 81.0108C410.02 80.6251 410.403 80.3202 410.909 80.0961C411.42 79.872 412.042 79.7599 412.777 79.7599C413.773 79.7599 414.568 79.9788 415.162 80.4166C415.761 80.8544 416.066 81.472 416.076 82.2695H414.169C414.111 81.9568 413.955 81.717 413.7 81.5502C413.45 81.3782 413.132 81.2922 412.746 81.2922C412.355 81.2922 412.032 81.3626 411.777 81.5033C411.521 81.644 411.393 81.8577 411.393 82.1444C411.393 82.3581 411.498 82.5275 411.706 82.6525C411.915 82.7724 412.238 82.8767 412.676 82.9653L413.989 83.2623C414.442 83.3718 414.81 83.5229 415.091 83.7158C415.378 83.9034 415.6 84.1093 415.756 84.3334C415.912 84.5575 416.019 84.7842 416.076 85.0136C416.139 85.2377 416.17 85.4409 416.17 85.6234C416.17 86.1602 416.027 86.6188 415.74 86.9993C415.454 87.3746 415.055 87.6612 414.544 87.8593C414.033 88.0573 413.439 88.1564 412.762 88.1564ZM417.778 88V79.9163H419.959V88H417.778ZM417.755 78.7592V76.7031H419.975V78.7592H417.755ZM425.615 90.6737C424.176 90.6737 423.082 90.4913 422.331 90.1265C421.586 89.7616 421.213 89.2821 421.213 88.688C421.213 88.4117 421.284 88.1798 421.424 87.9922C421.57 87.8046 421.74 87.656 421.933 87.5466C422.131 87.4319 422.31 87.3459 422.472 87.2886C422.639 87.226 422.743 87.1843 422.785 87.1635C422.701 87.1166 422.579 87.0488 422.417 86.9602C422.261 86.8664 422.118 86.7413 421.987 86.585C421.857 86.4234 421.792 86.2149 421.792 85.9595C421.792 85.6729 421.927 85.4071 422.198 85.1621C422.475 84.9171 422.892 84.7477 423.449 84.6539C422.918 84.4038 422.511 84.065 422.23 83.6376C421.953 83.2102 421.815 82.7724 421.815 82.3242C421.815 81.7926 421.982 81.3365 422.316 80.9561C422.649 80.5756 423.105 80.2863 423.684 80.0883C424.262 79.8902 424.916 79.7912 425.646 79.7912C426.199 79.7912 426.652 79.8511 427.006 79.971C427.366 80.0857 427.697 80.2368 427.999 80.4244C428.119 80.3775 428.276 80.3176 428.468 80.2446C428.666 80.1665 428.88 80.0831 429.109 79.9945C429.344 79.9006 429.571 79.8094 429.79 79.7208C430.009 79.627 430.204 79.5436 430.376 79.4707L430.36 81.2375L428.969 81.4642C429.021 81.6049 429.063 81.7561 429.094 81.9177C429.125 82.0792 429.141 82.2121 429.141 82.3164C429.141 82.7855 429.003 83.2233 428.726 83.6298C428.455 84.0363 428.049 84.3647 427.507 84.6148C426.965 84.865 426.29 84.9901 425.482 84.9901C425.388 84.9901 425.258 84.9875 425.091 84.9823C424.924 84.9771 424.789 84.9693 424.685 84.9588C424.382 84.9745 424.171 85.0136 424.051 85.0761C423.937 85.1386 423.879 85.2116 423.879 85.295C423.879 85.4201 423.997 85.5035 424.231 85.5452C424.466 85.5817 424.82 85.6155 425.294 85.6468C425.466 85.6572 425.701 85.6703 425.998 85.6859C426.295 85.7015 426.621 85.7224 426.975 85.7484C427.965 85.8162 428.703 86.0612 429.188 86.4833C429.678 86.9003 429.923 87.4267 429.923 88.0625C429.923 88.8183 429.563 89.4411 428.844 89.931C428.13 90.4262 427.053 90.6737 425.615 90.6737ZM425.982 89.3994C426.613 89.3994 427.064 89.3212 427.335 89.1649C427.611 89.0085 427.749 88.7844 427.749 88.4925C427.749 88.2476 427.642 88.0495 427.429 87.8984C427.22 87.742 426.918 87.6508 426.522 87.6247L424.669 87.4997C424.424 87.4892 424.21 87.5257 424.028 87.6091C423.845 87.6925 423.702 87.8072 423.598 87.9531C423.499 88.099 423.449 88.2554 423.449 88.4222C423.449 88.7609 423.655 89.0085 424.067 89.1649C424.479 89.3212 425.117 89.3994 425.982 89.3994ZM425.552 83.7158C425.985 83.7158 426.332 83.5985 426.592 83.364C426.853 83.1242 426.983 82.8011 426.983 82.3946C426.983 81.9724 426.853 81.6336 426.592 81.3782C426.332 81.1228 425.985 80.9952 425.552 80.9952C425.12 80.9952 424.771 81.1228 424.505 81.3782C424.239 81.6336 424.106 81.9724 424.106 82.3946C424.106 82.7959 424.234 83.1164 424.489 83.3562C424.75 83.5959 425.104 83.7158 425.552 83.7158ZM431.696 88V79.9163H433.939V81.0577C434.065 80.8596 434.226 80.6694 434.424 80.487C434.627 80.2994 434.883 80.1456 435.19 80.0257C435.498 79.9059 435.863 79.8459 436.285 79.8459C436.78 79.8459 437.241 79.9423 437.669 80.1352C438.101 80.328 438.45 80.6329 438.716 81.0499C438.982 81.4616 439.115 82.0011 439.115 82.6682V88H436.832V82.9496C436.832 82.5118 436.702 82.1835 436.441 81.9646C436.181 81.7457 435.863 81.6362 435.487 81.6362C435.237 81.6362 434.995 81.6805 434.76 81.7691C434.531 81.8577 434.343 81.9906 434.197 82.1678C434.052 82.345 433.979 82.5639 433.979 82.8245V88H431.696Z" fill="#1570F4"/>
<path d="M622.668 88V76.6953H630.432L630.424 78.6185H624.959V81.3626H629.705V83.2467H624.943V86.0533L630.51 86.0612V88H622.668ZM632.213 88V79.9163H634.456V81.0577C634.581 80.8596 634.743 80.6694 634.941 80.487C635.144 80.2994 635.4 80.1456 635.707 80.0257C636.015 79.9059 636.38 79.8459 636.802 79.8459C637.297 79.8459 637.758 79.9423 638.186 80.1352C638.618 80.328 638.967 80.6329 639.233 81.0499C639.499 81.4616 639.632 82.0011 639.632 82.6682V88H637.349V82.9496C637.349 82.5118 637.219 82.1835 636.958 81.9646C636.698 81.7457 636.38 81.6362 636.004 81.6362C635.754 81.6362 635.512 81.6805 635.277 81.7691C635.048 81.8577 634.86 81.9906 634.714 82.1678C634.568 82.345 634.495 82.5639 634.495 82.8245V88H632.213ZM645.234 90.6737C643.795 90.6737 642.701 90.4913 641.95 90.1265C641.205 89.7616 640.832 89.2821 640.832 88.688C640.832 88.4117 640.903 88.1798 641.043 87.9922C641.189 87.8046 641.359 87.656 641.552 87.5466C641.75 87.4319 641.929 87.3459 642.091 87.2886C642.258 87.226 642.362 87.1843 642.404 87.1635C642.32 87.1166 642.198 87.0488 642.036 86.9602C641.88 86.8664 641.737 86.7413 641.606 86.585C641.476 86.4234 641.411 86.2149 641.411 85.9595C641.411 85.6729 641.546 85.4071 641.817 85.1621C642.094 84.9171 642.511 84.7477 643.068 84.6539C642.537 84.4038 642.13 84.065 641.849 83.6376C641.572 83.2102 641.434 82.7724 641.434 82.3242C641.434 81.7926 641.601 81.3365 641.935 80.9561C642.268 80.5756 642.724 80.2863 643.303 80.0883C643.881 79.8902 644.535 79.7912 645.265 79.7912C645.817 79.7912 646.271 79.8511 646.625 79.971C646.985 80.0857 647.316 80.2368 647.618 80.4244C647.738 80.3775 647.894 80.3176 648.087 80.2446C648.285 80.1665 648.499 80.0831 648.728 79.9945C648.963 79.9006 649.19 79.8094 649.409 79.7208C649.627 79.627 649.823 79.5436 649.995 79.4707L649.979 81.2375L648.588 81.4642C648.64 81.6049 648.681 81.7561 648.713 81.9177C648.744 82.0792 648.76 82.2121 648.76 82.3164C648.76 82.7855 648.622 83.2233 648.345 83.6298C648.074 84.0363 647.668 84.3647 647.126 84.6148C646.584 84.865 645.909 84.9901 645.101 84.9901C645.007 84.9901 644.877 84.9875 644.71 84.9823C644.543 84.9771 644.408 84.9693 644.303 84.9588C644.001 84.9745 643.79 85.0136 643.67 85.0761C643.556 85.1386 643.498 85.2116 643.498 85.295C643.498 85.4201 643.615 85.5035 643.85 85.5452C644.085 85.5817 644.439 85.6155 644.913 85.6468C645.085 85.6572 645.32 85.6703 645.617 85.6859C645.914 85.7015 646.24 85.7224 646.594 85.7484C647.584 85.8162 648.322 86.0612 648.807 86.4833C649.296 86.9003 649.541 87.4267 649.541 88.0625C649.541 88.8183 649.182 89.4411 648.463 89.931C647.749 90.4262 646.672 90.6737 645.234 90.6737ZM645.601 89.3994C646.232 89.3994 646.683 89.3212 646.954 89.1649C647.23 89.0085 647.368 88.7844 647.368 88.4925C647.368 88.2476 647.261 88.0495 647.048 87.8984C646.839 87.742 646.537 87.6508 646.141 87.6247L644.288 87.4997C644.043 87.4892 643.829 87.5257 643.647 87.6091C643.464 87.6925 643.321 87.8072 643.217 87.9531C643.118 88.099 643.068 88.2554 643.068 88.4222C643.068 88.7609 643.274 89.0085 643.686 89.1649C644.098 89.3212 644.736 89.3994 645.601 89.3994ZM645.171 83.7158C645.604 83.7158 645.95 83.5985 646.211 83.364C646.472 83.1242 646.602 82.8011 646.602 82.3946C646.602 81.9724 646.472 81.6336 646.211 81.3782C645.95 81.1228 645.604 80.9952 645.171 80.9952C644.739 80.9952 644.389 81.1228 644.124 81.3782C643.858 81.6336 643.725 81.9724 643.725 82.3946C643.725 82.7959 643.853 83.1164 644.108 83.3562C644.369 83.5959 644.723 83.7158 645.171 83.7158ZM651.338 88V79.9163H653.519V88H651.338ZM651.315 78.7592V76.7031H653.535V78.7592H651.315ZM655.529 88V79.9163H657.773V81.0577C657.898 80.8596 658.059 80.6694 658.257 80.487C658.461 80.2994 658.716 80.1456 659.024 80.0257C659.331 79.9059 659.696 79.8459 660.118 79.8459C660.613 79.8459 661.074 79.9423 661.502 80.1352C661.934 80.328 662.284 80.6329 662.549 81.0499C662.815 81.4616 662.948 82.0011 662.948 82.6682V88H660.665V82.9496C660.665 82.5118 660.535 82.1835 660.274 81.9646C660.014 81.7457 659.696 81.6362 659.321 81.6362C659.07 81.6362 658.828 81.6805 658.594 81.7691C658.364 81.8577 658.177 81.9906 658.031 82.1678C657.885 82.345 657.812 82.5639 657.812 82.8245V88H655.529ZM668.511 88.1564C667.708 88.1564 667.002 87.9896 666.392 87.656C665.788 87.3172 665.316 86.8403 664.977 86.2253C664.639 85.6103 664.469 84.8859 664.469 84.052C664.469 83.2441 664.623 82.517 664.93 81.8708C665.243 81.2193 665.691 80.7059 666.275 80.3306C666.859 79.9502 667.565 79.7599 668.394 79.7599C669.217 79.7599 669.908 79.9345 670.465 80.2837C671.023 80.6277 671.445 81.1098 671.732 81.73C672.019 82.345 672.162 83.0565 672.162 83.8643V84.4819H666.728C666.728 84.8937 666.796 85.2533 666.932 85.5608C667.067 85.8631 667.263 86.0976 667.518 86.2644C667.779 86.426 668.091 86.5068 668.456 86.5068C668.847 86.5068 669.189 86.4234 669.48 86.2566C669.772 86.0898 669.978 85.8162 670.098 85.4357H672.154C672.06 86.009 671.831 86.499 671.466 86.9055C671.101 87.312 670.658 87.6221 670.137 87.8358C669.616 88.0495 669.074 88.1564 668.511 88.1564ZM666.728 83.1216H670.028C670.028 82.7985 669.965 82.5014 669.84 82.2304C669.72 81.9594 669.538 81.7457 669.293 81.5893C669.053 81.433 668.751 81.3548 668.386 81.3548C668.037 81.3548 667.737 81.4408 667.487 81.6128C667.242 81.7795 667.052 81.9984 666.916 82.2695C666.786 82.5405 666.723 82.8245 666.728 83.1216ZM677.52 88.1564C676.717 88.1564 676.011 87.9896 675.401 87.656C674.797 87.3172 674.325 86.8403 673.986 86.2253C673.647 85.6103 673.478 84.8859 673.478 84.052C673.478 83.2441 673.632 82.517 673.939 81.8708C674.252 81.2193 674.7 80.7059 675.284 80.3306C675.868 79.9502 676.574 79.7599 677.403 79.7599C678.226 79.7599 678.917 79.9345 679.474 80.2837C680.032 80.6277 680.454 81.1098 680.741 81.73C681.028 82.345 681.171 83.0565 681.171 83.8643V84.4819H675.737C675.737 84.8937 675.805 85.2533 675.941 85.5608C676.076 85.8631 676.272 86.0976 676.527 86.2644C676.788 86.426 677.1 86.5068 677.465 86.5068C677.856 86.5068 678.197 86.4234 678.489 86.2566C678.781 86.0898 678.987 85.8162 679.107 85.4357H681.163C681.069 86.009 680.84 86.499 680.475 86.9055C680.11 87.312 679.667 87.6221 679.146 87.8358C678.625 88.0495 678.083 88.1564 677.52 88.1564ZM675.737 83.1216H679.037C679.037 82.7985 678.974 82.5014 678.849 82.2304C678.729 81.9594 678.547 81.7457 678.302 81.5893C678.062 81.433 677.76 81.3548 677.395 81.3548C677.046 81.3548 676.746 81.4408 676.496 81.6128C676.251 81.7795 676.061 81.9984 675.925 82.2695C675.795 82.5405 675.732 82.8245 675.737 83.1216ZM682.815 88V79.9163H685.012V81.8317C685.142 81.4199 685.325 81.0603 685.559 80.7528C685.799 80.4401 686.088 80.1977 686.427 80.0257C686.766 79.8485 687.149 79.7599 687.576 79.7599C687.649 79.7599 687.717 79.7651 687.78 79.7756C687.847 79.7808 687.897 79.7912 687.928 79.8068V81.9802C687.881 81.9594 687.824 81.9463 687.756 81.9411C687.694 81.9359 687.636 81.9307 687.584 81.9255C687.136 81.889 686.753 81.902 686.435 81.9646C686.117 82.0271 685.859 82.134 685.661 82.2851C685.463 82.4363 685.32 82.6213 685.231 82.8402C685.142 83.0591 685.098 83.304 685.098 83.5751V88H682.815ZM689.282 88V79.9163H691.464V88H689.282ZM689.259 78.7592V76.7031H691.479V78.7592H689.259ZM693.473 88V79.9163H695.717V81.0577C695.842 80.8596 696.004 80.6694 696.202 80.487C696.405 80.2994 696.66 80.1456 696.968 80.0257C697.275 79.9059 697.64 79.8459 698.062 79.8459C698.558 79.8459 699.019 79.9423 699.446 80.1352C699.879 80.328 700.228 80.6329 700.494 81.0499C700.76 81.4616 700.893 82.0011 700.893 82.6682V88H698.61V82.9496C698.61 82.5118 698.479 82.1835 698.219 81.9646C697.958 81.7457 697.64 81.6362 697.265 81.6362C697.015 81.6362 696.772 81.6805 696.538 81.7691C696.309 81.8577 696.121 81.9906 695.975 82.1678C695.829 82.345 695.756 82.5639 695.756 82.8245V88H693.473ZM706.494 90.6737C705.056 90.6737 703.961 90.4913 703.211 90.1265C702.466 89.7616 702.093 89.2821 702.093 88.688C702.093 88.4117 702.163 88.1798 702.304 87.9922C702.45 87.8046 702.619 87.656 702.812 87.5466C703.01 87.4319 703.19 87.3459 703.352 87.2886C703.518 87.226 703.623 87.1843 703.664 87.1635C703.581 87.1166 703.458 87.0488 703.297 86.9602C703.141 86.8664 702.997 86.7413 702.867 86.585C702.737 86.4234 702.671 86.2149 702.671 85.9595C702.671 85.6729 702.807 85.4071 703.078 85.1621C703.354 84.9171 703.771 84.7477 704.329 84.6539C703.797 84.4038 703.391 84.065 703.109 83.6376C702.833 83.2102 702.695 82.7724 702.695 82.3242C702.695 81.7926 702.862 81.3365 703.195 80.9561C703.529 80.5756 703.985 80.2863 704.563 80.0883C705.142 79.8902 705.796 79.7912 706.526 79.7912C707.078 79.7912 707.532 79.8511 707.886 79.971C708.246 80.0857 708.577 80.2368 708.879 80.4244C708.999 80.3775 709.155 80.3176 709.348 80.2446C709.546 80.1665 709.76 80.0831 709.989 79.9945C710.224 79.9006 710.45 79.8094 710.669 79.7208C710.888 79.627 711.084 79.5436 711.256 79.4707L711.24 81.2375L709.848 81.4642C709.9 81.6049 709.942 81.7561 709.973 81.9177C710.005 82.0792 710.02 82.2121 710.02 82.3164C710.02 82.7855 709.882 83.2233 709.606 83.6298C709.335 84.0363 708.928 84.3647 708.386 84.6148C707.844 84.865 707.169 84.9901 706.362 84.9901C706.268 84.9901 706.137 84.9875 705.971 84.9823C705.804 84.9771 705.668 84.9693 705.564 84.9588C705.262 84.9745 705.051 85.0136 704.931 85.0761C704.816 85.1386 704.759 85.2116 704.759 85.295C704.759 85.4201 704.876 85.5035 705.111 85.5452C705.345 85.5817 705.7 85.6155 706.174 85.6468C706.346 85.6572 706.58 85.6703 706.878 85.6859C707.175 85.7015 707.5 85.7224 707.855 85.7484C708.845 85.8162 709.583 86.0612 710.067 86.4833C710.557 86.9003 710.802 87.4267 710.802 88.0625C710.802 88.8183 710.442 89.4411 709.723 89.931C709.009 90.4262 707.933 90.6737 706.494 90.6737ZM706.862 89.3994C707.493 89.3994 707.943 89.3212 708.214 89.1649C708.491 89.0085 708.629 88.7844 708.629 88.4925C708.629 88.2476 708.522 88.0495 708.308 87.8984C708.1 87.742 707.797 87.6508 707.401 87.6247L705.548 87.4997C705.303 87.4892 705.09 87.5257 704.907 87.6091C704.725 87.6925 704.582 87.8072 704.477 87.9531C704.378 88.099 704.329 88.2554 704.329 88.4222C704.329 88.7609 704.535 89.0085 704.946 89.1649C705.358 89.3212 705.997 89.3994 706.862 89.3994ZM706.432 83.7158C706.864 83.7158 707.211 83.5985 707.472 83.364C707.732 83.1242 707.863 82.8011 707.863 82.3946C707.863 81.9724 707.732 81.6336 707.472 81.3782C707.211 81.1228 706.864 80.9952 706.432 80.9952C705.999 80.9952 705.65 81.1228 705.384 81.3782C705.118 81.6336 704.986 81.9724 704.986 82.3946C704.986 82.7959 705.113 83.1164 705.369 83.3562C705.629 83.5959 705.984 83.7158 706.432 83.7158Z" fill="black"/>
<path opacity="0.5" d="M778.831 79.1564C777.825 79.1564 776.971 78.9296 776.267 78.4762C775.569 78.0175 775.034 77.3556 774.664 76.4904C774.294 75.6201 774.109 74.5646 774.109 73.3242C774.109 72.0838 774.292 71.0335 774.657 70.1736C775.027 69.3136 775.564 68.6595 776.267 68.2113C776.971 67.7631 777.825 67.5389 778.831 67.5389C779.613 67.5389 780.306 67.7031 780.911 68.0315C781.516 68.3598 782 68.795 782.365 69.3371C782.73 69.8791 782.946 70.4681 783.014 71.1039H781.701C781.612 70.6505 781.445 70.2361 781.2 69.8609C780.96 69.4856 780.64 69.1859 780.239 68.9618C779.837 68.7377 779.36 68.6256 778.808 68.6256C778.078 68.6256 777.463 68.795 776.963 69.1338C776.468 69.4726 776.093 69.9912 775.837 70.6896C775.587 71.3827 775.462 72.2662 775.462 73.3398C775.462 74.9555 775.743 76.1465 776.306 76.9126C776.874 77.6788 777.708 78.0619 778.808 78.0619C779.36 78.0619 779.837 77.9472 780.239 77.7179C780.64 77.4833 780.96 77.1758 781.2 76.7953C781.445 76.4097 781.612 75.9901 781.701 75.5367H783.014C782.957 76.0005 782.826 76.4514 782.623 76.8892C782.425 77.3218 782.151 77.71 781.802 78.054C781.458 78.3928 781.036 78.6612 780.536 78.8593C780.041 79.0573 779.472 79.1564 778.831 79.1564ZM788.271 79.1564C787.536 79.1564 786.895 79 786.348 78.6873C785.8 78.3694 785.376 77.9003 785.073 77.2801C784.771 76.6598 784.62 75.8963 784.62 74.9894C784.62 74.1451 784.758 73.405 785.034 72.7691C785.311 72.1333 785.72 71.6407 786.262 71.2915C786.809 70.9371 787.479 70.7599 788.271 70.7599C789.001 70.7599 789.636 70.9215 790.178 71.2446C790.721 71.5626 791.14 72.0368 791.437 72.6675C791.739 73.2929 791.891 74.0669 791.891 74.9894C791.891 75.8129 791.752 76.5374 791.476 77.1628C791.205 77.7882 790.801 78.2781 790.264 78.6326C789.733 78.9818 789.068 79.1564 788.271 79.1564ZM788.271 78.1713C788.776 78.1713 789.209 78.0462 789.569 77.796C789.928 77.5459 790.202 77.181 790.39 76.7015C790.577 76.222 790.671 75.6409 790.671 74.9581C790.671 74.3431 790.588 73.7933 790.421 73.3086C790.259 72.8238 790.001 72.4434 789.647 72.1671C789.292 71.8857 788.834 71.745 788.271 71.745C787.76 71.745 787.322 71.8701 786.958 72.1202C786.593 72.3652 786.314 72.7274 786.121 73.2069C785.933 73.6864 785.84 74.2702 785.84 74.9581C785.84 75.5731 785.923 76.123 786.09 76.6077C786.257 77.0872 786.52 77.4677 786.879 77.7491C787.239 78.0306 787.703 78.1713 788.271 78.1713ZM796.816 79.1564C795.779 79.1564 794.953 78.8019 794.338 78.0931C793.723 77.3791 793.415 76.3237 793.415 74.9269C793.415 74.0877 793.538 73.3581 793.783 72.7379C794.028 72.1124 794.395 71.6277 794.885 71.2837C795.38 70.9345 795.998 70.7599 796.738 70.7599C797.149 70.7599 797.512 70.8146 797.824 70.9241C798.137 71.0283 798.403 71.1612 798.622 71.3228C798.846 71.4844 799.023 71.6486 799.153 71.8153C799.289 71.9821 799.388 72.1254 799.451 72.2453V67.3826H800.678V79H799.716L799.591 77.3426C799.544 77.4833 799.466 77.6553 799.357 77.8586C799.247 78.0619 799.088 78.2625 798.88 78.4606C798.671 78.6586 798.398 78.8254 798.059 78.9609C797.725 79.0912 797.311 79.1564 796.816 79.1564ZM797.011 78.1869C797.892 78.1869 798.518 77.9263 798.888 77.4051C799.263 76.8787 799.451 76.0266 799.451 74.8487C799.44 74.1972 799.354 73.6395 799.193 73.1757C799.036 72.7118 798.783 72.3574 798.434 72.1124C798.09 71.8622 797.626 71.7372 797.043 71.7372C796.334 71.7372 795.758 71.9873 795.315 72.4877C794.872 72.988 794.65 73.775 794.65 74.8487C794.65 75.8911 794.848 76.7094 795.244 77.3035C795.641 77.8925 796.23 78.1869 797.011 78.1869ZM806.53 79.1564C805.79 79.1564 805.135 78.9948 804.567 78.6716C804.004 78.3433 803.564 77.8716 803.246 77.2566C802.928 76.6416 802.769 75.9015 802.769 75.0363C802.769 74.1763 802.913 73.4258 803.199 72.7848C803.486 72.1385 803.903 71.6407 804.45 71.2915C804.997 70.9371 805.657 70.7599 806.428 70.7599C807.173 70.7599 807.804 70.9215 808.32 71.2446C808.836 71.5626 809.229 72.0186 809.5 72.6128C809.771 73.2069 809.907 73.9158 809.907 74.7392V75.2396H804.02C804.015 75.7816 804.101 76.2742 804.278 76.7172C804.461 77.1602 804.737 77.5146 805.107 77.7804C805.477 78.0462 805.943 78.1791 806.506 78.1791C807.059 78.1791 807.533 78.0514 807.929 77.796C808.325 77.5354 808.573 77.168 808.672 76.6937H809.844C809.745 77.2358 809.529 77.6892 809.196 78.054C808.862 78.4189 808.461 78.6951 807.992 78.8827C807.528 79.0651 807.04 79.1564 806.53 79.1564ZM804.028 74.3718H808.719C808.719 73.8714 808.635 73.4206 808.468 73.0193C808.302 72.618 808.046 72.3 807.702 72.0655C807.364 71.831 806.934 71.7137 806.412 71.7137C805.865 71.7137 805.414 71.8466 805.06 72.1124C804.705 72.373 804.442 72.7066 804.27 73.1131C804.103 73.5196 804.023 73.9392 804.028 74.3718ZM767.835 97V85.6953H772.103C772.895 85.6953 773.56 85.8152 774.097 86.0549C774.639 86.2895 775.045 86.6308 775.316 87.0791C775.593 87.5273 775.731 88.0693 775.731 88.7052C775.731 89.3202 775.616 89.8336 775.387 90.2453C775.163 90.6519 774.878 90.9776 774.534 91.2226C774.19 91.4623 773.836 91.6421 773.471 91.762L775.731 97H774.425L772.299 91.9887H769.054V97H767.835ZM769.054 90.9411H771.618C772.536 90.9411 773.239 90.7665 773.729 90.4173C774.224 90.0629 774.472 89.5209 774.472 88.7912C774.472 88.0876 774.256 87.569 773.823 87.2354C773.39 86.8967 772.786 86.7273 772.009 86.7273H769.054V90.9411ZM781.121 97.1564C780.381 97.1564 779.727 96.9948 779.159 96.6716C778.596 96.3433 778.156 95.8716 777.838 95.2566C777.52 94.6416 777.361 93.9015 777.361 93.0363C777.361 92.1763 777.504 91.4258 777.791 90.7848C778.078 90.1385 778.495 89.6407 779.042 89.2915C779.589 88.9371 780.248 88.7599 781.02 88.7599C781.765 88.7599 782.396 88.9215 782.912 89.2446C783.428 89.5626 783.821 90.0186 784.092 90.6128C784.363 91.2069 784.499 91.9158 784.499 92.7392V93.2396H778.612C778.607 93.7816 778.693 94.2742 778.87 94.7172C779.052 95.1602 779.329 95.5146 779.699 95.7804C780.069 96.0462 780.535 96.1791 781.098 96.1791C781.65 96.1791 782.125 96.0514 782.521 95.796C782.917 95.5354 783.165 95.168 783.264 94.6937H784.436C784.337 95.2358 784.121 95.6892 783.787 96.054C783.454 96.4189 783.052 96.6951 782.583 96.8827C782.12 97.0651 781.632 97.1564 781.121 97.1564ZM778.62 92.3718H783.31C783.31 91.8714 783.227 91.4206 783.06 91.0193C782.893 90.618 782.638 90.3 782.294 90.0655C781.955 89.831 781.525 89.7137 781.004 89.7137C780.457 89.7137 780.006 89.8466 779.652 90.1124C779.297 90.373 779.034 90.7066 778.862 91.1131C778.695 91.5196 778.614 91.9392 778.62 92.3718ZM788.52 97L785.627 88.9163H786.8L789.044 95.4911H789.2L791.475 88.9163H792.624L789.747 97H788.52ZM794.336 97V88.9163H795.525V97H794.336ZM794.282 87.0478V85.7031H795.564V87.0478H794.282ZM801.414 97.1564C800.674 97.1564 800.02 96.9948 799.452 96.6716C798.889 96.3433 798.449 95.8716 798.131 95.2566C797.813 94.6416 797.654 93.9015 797.654 93.0363C797.654 92.1763 797.797 91.4258 798.084 90.7848C798.371 90.1385 798.788 89.6407 799.335 89.2915C799.882 88.9371 800.541 88.7599 801.313 88.7599C802.058 88.7599 802.689 88.9215 803.205 89.2446C803.721 89.5626 804.114 90.0186 804.385 90.6128C804.656 91.2069 804.792 91.9158 804.792 92.7392V93.2396H798.905C798.9 93.7816 798.986 94.2742 799.163 94.7172C799.345 95.1602 799.622 95.5146 799.992 95.7804C800.362 96.0462 800.828 96.1791 801.391 96.1791C801.943 96.1791 802.418 96.0514 802.814 95.796C803.21 95.5354 803.457 95.168 803.557 94.6937H804.729C804.63 95.2358 804.414 95.6892 804.08 96.054C803.747 96.4189 803.345 96.6951 802.876 96.8827C802.413 97.0651 801.925 97.1564 801.414 97.1564ZM798.913 92.3718H803.603C803.603 91.8714 803.52 91.4206 803.353 91.0193C803.186 90.618 802.931 90.3 802.587 90.0655C802.248 89.831 801.818 89.7137 801.297 89.7137C800.75 89.7137 800.299 89.8466 799.945 90.1124C799.59 90.373 799.327 90.7066 799.155 91.1131C798.988 91.5196 798.907 91.9392 798.913 92.3718ZM808.491 97L806.028 88.9163H807.177L809.116 95.4521H809.257L811.164 88.9163H812.11L814.112 95.4364H814.26L816.105 88.9163H817.27L814.87 97H813.557L811.626 90.7379L809.804 97H808.491Z" fill="black"/>
<path d="M884.694 88V76.6953H886.992V86.069H891.902V88H884.694ZM895.707 88.1564C895.196 88.1564 894.732 88.0599 894.315 87.8671C893.903 87.6743 893.578 87.3954 893.338 87.0306C893.098 86.6605 892.978 86.2123 892.978 85.6859C892.978 84.7999 893.309 84.1275 893.971 83.6689C894.633 83.205 895.678 82.9653 897.106 82.9496L898.123 82.934V82.4493C898.123 82.0792 898.013 81.7952 897.794 81.5971C897.58 81.3939 897.244 81.2948 896.786 81.3C896.457 81.3053 896.142 81.3834 895.84 81.5346C895.543 81.6857 895.337 81.9489 895.222 82.3242H893.322C893.354 81.7405 893.523 81.261 893.831 80.8857C894.143 80.5052 894.563 80.2238 895.089 80.0414C895.616 79.8537 896.218 79.7599 896.895 79.7599C897.719 79.7599 898.381 79.8642 898.881 80.0726C899.381 80.2759 899.743 80.5704 899.968 80.9561C900.197 81.3365 900.312 81.79 900.312 82.3164V88H898.404L898.216 86.6084C897.94 87.1921 897.594 87.5961 897.177 87.8202C896.765 88.0443 896.275 88.1564 895.707 88.1564ZM896.481 86.6553C896.684 86.6553 896.882 86.6188 897.075 86.5459C897.273 86.4677 897.45 86.3661 897.607 86.241C897.763 86.1107 897.885 85.9647 897.974 85.8032C898.068 85.6416 898.117 85.4748 898.123 85.3028V84.1067L897.302 84.1223C896.921 84.1275 896.567 84.1744 896.238 84.263C895.91 84.3464 895.644 84.4845 895.441 84.6774C895.243 84.8702 895.144 85.1308 895.144 85.4592C895.144 85.8344 895.272 86.1289 895.527 86.3426C895.788 86.5511 896.106 86.6553 896.481 86.6553ZM905.142 88.1564C904.766 88.1564 904.396 88.099 904.031 87.9844C903.672 87.8697 903.343 87.7003 903.046 87.4762C902.749 87.2521 902.51 86.9759 902.327 86.6475C902.15 86.3191 902.061 85.9387 902.061 85.5061V79.9163H904.344V85.2168C904.344 85.5921 904.467 85.8996 904.712 86.1393C904.957 86.3791 905.316 86.499 905.79 86.499C906.239 86.499 906.593 86.3843 906.854 86.155C907.119 85.9204 907.252 85.5947 907.252 85.1777V79.9163H909.512V88H907.792L907.526 86.3973C907.432 86.8716 907.255 87.2365 906.994 87.4918C906.739 87.742 906.445 87.914 906.111 88.0078C905.783 88.1068 905.459 88.1564 905.142 88.1564ZM911.508 88V79.9163H913.752V81.0577C913.877 80.8596 914.038 80.6694 914.236 80.487C914.439 80.2994 914.695 80.1456 915.002 80.0257C915.31 79.9059 915.675 79.8459 916.097 79.8459C916.592 79.8459 917.053 79.9423 917.481 80.1352C917.913 80.328 918.262 80.6329 918.528 81.0499C918.794 81.4616 918.927 82.0011 918.927 82.6682V88H916.644V82.9496C916.644 82.5118 916.514 82.1835 916.253 81.9646C915.993 81.7457 915.675 81.6362 915.299 81.6362C915.049 81.6362 914.807 81.6805 914.572 81.7691C914.343 81.8577 914.155 81.9906 914.01 82.1678C913.864 82.345 913.791 82.5639 913.791 82.8245V88H911.508ZM924.294 88.1564C923.544 88.1564 922.874 87.9896 922.285 87.656C921.696 87.3224 921.232 86.8456 920.894 86.2253C920.56 85.5999 920.393 84.8546 920.393 83.9894C920.393 83.1555 920.555 82.4206 920.878 81.7848C921.201 81.1489 921.654 80.6538 922.238 80.2994C922.827 79.9397 923.513 79.7599 924.294 79.7599C924.972 79.7599 925.556 79.898 926.046 80.1743C926.541 80.4505 926.929 80.8232 927.21 81.2922C927.497 81.7613 927.661 82.2851 927.703 82.8636H925.803C925.767 82.6499 925.691 82.4389 925.576 82.2304C925.462 82.0167 925.3 81.8421 925.092 81.7066C924.883 81.5659 924.623 81.4955 924.31 81.4955C923.778 81.4955 923.346 81.7014 923.012 82.1131C922.684 82.5196 922.52 83.1399 922.52 83.9738C922.52 84.7608 922.681 85.3862 923.004 85.8501C923.328 86.3087 923.778 86.5381 924.357 86.5381C924.664 86.5381 924.92 86.4625 925.123 86.3113C925.332 86.1602 925.493 85.9804 925.608 85.7719C925.722 85.5582 925.795 85.3602 925.827 85.1777H927.679C927.643 85.7354 927.481 86.241 927.195 86.6944C926.908 87.1426 926.517 87.4997 926.022 87.7655C925.532 88.0261 924.956 88.1564 924.294 88.1564ZM929.281 88V76.3826H931.549V81.0811C931.679 80.8935 931.843 80.7085 932.041 80.5261C932.239 80.3384 932.487 80.1821 932.784 80.057C933.081 79.9319 933.443 79.8694 933.87 79.8694C934.386 79.8694 934.855 79.971 935.278 80.1743C935.705 80.3723 936.046 80.6616 936.302 81.0421C936.562 81.4225 936.693 81.8864 936.693 82.4336V88H934.402V82.7698C934.402 82.405 934.269 82.1261 934.003 81.9333C933.743 81.7352 933.425 81.6362 933.05 81.6362C932.805 81.6362 932.567 81.6805 932.338 81.7691C932.109 81.8577 931.921 81.9932 931.775 82.1757C931.635 82.3529 931.564 82.5744 931.564 82.8402V88H929.281Z" fill="#F0CE2E"/>
<path d="M258.199 79.1564C257.183 79.1564 256.315 78.9244 255.596 78.4606C254.881 77.9967 254.334 77.3296 253.954 76.4592C253.579 75.5888 253.391 74.5386 253.391 73.3086C253.391 72.0838 253.579 71.0414 253.954 70.1814C254.329 69.3214 254.874 68.6673 255.588 68.2191C256.307 67.7657 257.177 67.5389 258.199 67.5389C258.996 67.5389 259.703 67.7057 260.318 68.0393C260.933 68.3676 261.428 68.808 261.803 69.3605C262.178 69.913 262.4 70.5202 262.467 71.1821H260.927C260.844 70.7391 260.685 70.3378 260.45 69.9781C260.216 69.6185 259.908 69.3318 259.528 69.1182C259.147 68.9045 258.691 68.7976 258.16 68.7976C257.477 68.7976 256.899 68.9592 256.424 69.2823C255.955 69.6003 255.598 70.0928 255.353 70.7599C255.113 71.427 254.994 72.2818 254.994 73.3242C254.994 74.8982 255.262 76.0553 255.799 76.7953C256.341 77.5302 257.128 77.8977 258.16 77.8977C258.691 77.8977 259.147 77.7856 259.528 77.5615C259.908 77.3374 260.216 77.0377 260.45 76.6624C260.685 76.2872 260.844 75.8807 260.927 75.4428H262.467C262.41 75.9223 262.28 76.3862 262.077 76.8344C261.879 77.2775 261.605 77.6736 261.256 78.0228C260.907 78.372 260.477 78.6482 259.966 78.8515C259.46 79.0547 258.871 79.1564 258.199 79.1564ZM266.548 79.1016C266.11 79.1016 265.756 79.0417 265.485 78.9218C265.219 78.8019 265.013 78.6404 264.867 78.4371C264.726 78.2338 264.63 78.0019 264.578 77.7413C264.531 77.4755 264.508 77.2019 264.508 76.9204V67.3826H265.93V76.7797C265.93 77.1862 266.009 77.4911 266.165 77.6944C266.327 77.8977 266.551 78.0097 266.837 78.0306L267.275 78.0384V78.9765C267.155 79.013 267.03 79.0417 266.9 79.0625C266.77 79.0886 266.652 79.1016 266.548 79.1016ZM269.204 79V70.9163H270.603V79H269.204ZM269.165 69.2042V67.7031H270.642V69.2042H269.165ZM276.444 79.1564C275.694 79.1564 275.032 78.9922 274.459 78.6638C273.885 78.3355 273.437 77.8638 273.114 77.2488C272.791 76.6338 272.629 75.8963 272.629 75.0363C272.629 74.1868 272.775 73.4415 273.067 72.8004C273.359 72.1593 273.781 71.659 274.333 71.2994C274.891 70.9397 275.561 70.7599 276.343 70.7599C277.104 70.7599 277.747 70.9241 278.274 71.2524C278.8 71.5808 279.199 72.0447 279.47 72.644C279.746 73.2382 279.884 73.9444 279.884 74.7627V75.2943H274.091C274.091 75.8051 274.175 76.2689 274.341 76.6859C274.513 77.0976 274.771 77.426 275.115 77.671C275.459 77.9159 275.894 78.0384 276.421 78.0384C276.937 78.0384 277.38 77.9185 277.75 77.6788C278.125 77.439 278.365 77.0924 278.469 76.639H279.829C279.736 77.1862 279.517 77.6475 279.173 78.0228C278.834 78.398 278.425 78.6821 277.945 78.8749C277.471 79.0625 276.971 79.1564 276.444 79.1564ZM274.099 74.3171H278.493C278.493 73.8532 278.414 73.4363 278.258 73.0662C278.102 72.6909 277.862 72.3965 277.539 72.1828C277.221 71.9639 276.82 71.8544 276.335 71.8544C275.829 71.8544 275.41 71.9769 275.076 72.2219C274.743 72.4616 274.495 72.7717 274.333 73.1522C274.172 73.5275 274.094 73.9158 274.099 74.3171ZM281.884 79V70.9163H283.284V72.089C283.414 71.8649 283.594 71.6538 283.823 71.4557C284.058 71.2577 284.339 71.0987 284.667 70.9788C285.001 70.8589 285.384 70.799 285.817 70.799C286.327 70.799 286.796 70.9006 287.224 71.1039C287.656 71.3072 288 71.6251 288.256 72.0577C288.516 72.4851 288.647 73.0375 288.647 73.7151V79H287.2V73.8558C287.2 73.2252 287.034 72.7587 286.7 72.4564C286.372 72.1489 285.944 71.9952 285.418 71.9952C285.053 71.9952 284.712 72.0551 284.394 72.175C284.076 72.2896 283.818 72.4668 283.62 72.7066C283.422 72.9411 283.323 73.2382 283.323 73.5978V79H281.884ZM293.535 79.0391C292.978 79.0391 292.545 78.9635 292.238 78.8124C291.93 78.6612 291.714 78.4371 291.589 78.14C291.469 77.8429 291.409 77.4781 291.409 77.0455V71.9717H290.095V70.9163H291.448L291.8 68.5631H292.863V70.9085H294.685V71.9717H292.863V76.9986C292.863 77.2853 292.892 77.4964 292.949 77.6319C293.012 77.7622 293.113 77.8456 293.254 77.882C293.395 77.9185 293.593 77.9368 293.848 77.9368H294.732V78.9062C294.632 78.9427 294.481 78.9739 294.278 79C294.08 79.0261 293.832 79.0391 293.535 79.0391ZM245.779 97V85.6953H247.225V90.5111H253.323V85.6953H254.77V97H253.323V91.7855H247.225V97H245.779ZM259.675 97.1564C259.148 97.1564 258.684 97.0651 258.283 96.8827C257.887 96.6951 257.574 96.4267 257.345 96.0775C257.121 95.7283 257.009 95.3061 257.009 94.811C257.009 93.9145 257.321 93.2474 257.947 92.8096C258.572 92.3718 259.576 92.1373 260.957 92.106L262.395 92.0669V91.4336C262.395 90.9385 262.247 90.5476 261.95 90.261C261.652 89.9691 261.194 89.8232 260.574 89.8232C260.11 89.8284 259.701 89.9378 259.346 90.1515C258.992 90.3652 258.765 90.7144 258.666 91.1991H257.392C257.423 90.6727 257.569 90.2297 257.83 89.8701C258.095 89.5052 258.468 89.229 258.947 89.0414C259.427 88.8537 259.992 88.7599 260.644 88.7599C261.348 88.7599 261.931 88.8589 262.395 89.057C262.864 89.2551 263.213 89.5469 263.443 89.9326C263.677 90.3183 263.795 90.7926 263.795 91.3555V97H262.559L262.45 95.4833C262.142 96.114 261.746 96.5518 261.262 96.7967C260.782 97.0365 260.253 97.1564 259.675 97.1564ZM260.105 96.1166C260.381 96.1166 260.652 96.0671 260.918 95.968C261.189 95.869 261.434 95.7361 261.652 95.5693C261.877 95.3973 262.056 95.2071 262.192 94.9986C262.327 94.7849 262.395 94.566 262.395 94.3419V92.9581L261.199 92.9816C260.579 92.992 260.063 93.0546 259.651 93.1692C259.239 93.2839 258.929 93.4637 258.721 93.7087C258.512 93.9536 258.408 94.2742 258.408 94.6703C258.408 95.1237 258.567 95.4781 258.885 95.7335C259.203 95.9889 259.609 96.1166 260.105 96.1166ZM266.05 97V88.9163H267.449V90.089C267.579 89.8649 267.759 89.6538 267.989 89.4557C268.223 89.2577 268.505 89.0987 268.833 88.9788C269.167 88.8589 269.55 88.799 269.982 88.799C270.493 88.799 270.962 88.9006 271.389 89.1039C271.822 89.3072 272.166 89.6251 272.421 90.0577C272.682 90.4851 272.812 91.0375 272.812 91.7151V97H271.366V91.8558C271.366 91.2252 271.199 90.7587 270.866 90.4564C270.537 90.1489 270.11 89.9952 269.583 89.9952C269.219 89.9952 268.877 90.0551 268.559 90.175C268.241 90.2896 267.983 90.4668 267.785 90.7066C267.587 90.9411 267.488 91.2382 267.488 91.5978V97H266.05ZM278.021 97.1564C276.969 97.1564 276.135 96.7967 275.52 96.0775C274.91 95.3582 274.605 94.308 274.605 92.9269C274.605 92.0877 274.727 91.3555 274.972 90.73C275.217 90.1046 275.585 89.6199 276.075 89.2759C276.565 88.9319 277.174 88.7599 277.904 88.7599C278.295 88.7599 278.639 88.8094 278.936 88.9085C279.233 89.0075 279.491 89.1326 279.71 89.2837C279.929 89.4349 280.106 89.5912 280.242 89.7528C280.382 89.9144 280.487 90.0629 280.554 90.1984V85.3826H282.016V97H280.906L280.75 95.3426C280.698 95.499 280.614 95.6814 280.5 95.8899C280.385 96.0931 280.223 96.2938 280.015 96.4918C279.812 96.6847 279.546 96.8436 279.217 96.9687C278.889 97.0938 278.49 97.1564 278.021 97.1564ZM278.279 96.0462C279.092 96.0462 279.674 95.7986 280.023 95.3035C280.377 94.8032 280.554 93.9875 280.554 92.8565C280.549 92.2259 280.471 91.689 280.32 91.246C280.169 90.803 279.929 90.4668 279.601 90.2375C279.277 90.003 278.845 89.8857 278.303 89.8857C277.641 89.8857 277.101 90.1228 276.684 90.5971C276.268 91.0714 276.059 91.8245 276.059 92.8565C276.059 93.8676 276.247 94.652 276.622 95.2097C276.997 95.7674 277.55 96.0462 278.279 96.0462ZM287.64 97.1564C286.895 97.1564 286.243 96.9974 285.686 96.6795C285.133 96.3563 284.703 95.8846 284.396 95.2644C284.088 94.6442 283.934 93.8859 283.934 92.9894C283.934 92.1451 284.078 91.405 284.364 90.7691C284.651 90.1333 285.071 89.6407 285.623 89.2915C286.176 88.9371 286.851 88.7599 287.648 88.7599C288.393 88.7599 289.04 88.9241 289.587 89.2524C290.134 89.5756 290.559 90.0525 290.861 90.6831C291.169 91.3138 291.322 92.0825 291.322 92.9894C291.322 93.8129 291.182 94.5374 290.9 95.1628C290.619 95.7882 290.204 96.2781 289.657 96.6326C289.115 96.9818 288.443 97.1564 287.64 97.1564ZM287.648 96.0149C288.127 96.0149 288.534 95.8925 288.868 95.6475C289.201 95.4025 289.454 95.0507 289.626 94.5921C289.803 94.1334 289.892 93.5888 289.892 92.9581C289.892 92.3796 289.814 91.861 289.657 91.4024C289.506 90.9385 289.266 90.5711 288.938 90.3C288.61 90.029 288.18 89.8935 287.648 89.8935C287.158 89.8935 286.744 90.016 286.405 90.261C286.066 90.5007 285.808 90.8499 285.631 91.3086C285.459 91.7672 285.373 92.3171 285.373 92.9581C285.373 93.5262 285.449 94.0422 285.6 94.5061C285.756 94.9699 286.001 95.3374 286.335 95.6084C286.673 95.8794 287.111 96.0149 287.648 96.0149ZM294.003 97V89.9717H292.291V88.9163H294.003V87.6654C294.003 87.0243 294.164 86.537 294.487 86.2035C294.816 85.8647 295.306 85.6953 295.957 85.6953H297.482L297.49 86.7194H296.286C295.952 86.7194 295.725 86.808 295.605 86.9853C295.486 87.1625 295.426 87.4309 295.426 87.7905V88.9163H297.411V89.9717H295.449V97H294.003ZM299.805 97V89.9717H298.093V88.9163H299.805V87.6654C299.805 87.0243 299.967 86.537 300.29 86.2035C300.618 85.8647 301.108 85.6953 301.76 85.6953H303.284L303.292 86.7194H302.088C301.754 86.7194 301.528 86.808 301.408 86.9853C301.288 87.1625 301.228 87.4309 301.228 87.7905V88.9163H303.214V89.9717H301.251V97H299.805Z" fill="black"/>
<path d="M255 24.5052L273.428 13.8659L273.428 35.1446L255 24.5052Z" fill="black"/>
<path d="M291.855 24.5055L273.428 35.1449L273.428 13.8661L291.855 24.5055Z" fill="black"/>
<circle cx="792.481" cy="23.6659" r="6.48136" fill="#BFBFBF"/>
<path d="M552.141 7.59482C556.259 7.61007 559.277 9.54172 561.708 12.3536C564.119 15.1432 565.99 18.8427 567.821 22.4581C569.669 26.1056 571.479 29.6701 573.783 32.3341C576.068 34.9755 578.802 36.6878 582.509 36.6983C586.215 36.7088 588.957 35.0128 591.254 32.3849C593.57 29.7344 595.396 26.1809 597.261 22.5431C599.109 18.9374 600.996 15.2472 603.421 12.4679C605.865 9.6664 608.893 7.74627 613.012 7.74618C617.131 7.74625 620.137 9.66314 622.546 12.462C624.935 15.2375 626.774 18.9232 628.575 22.5245C630.392 26.1585 632.171 29.7091 634.452 32.3614C636.713 34.9899 639.431 36.6922 643.138 36.6974C647.016 36.7009 649.892 35.0323 652.295 32.4591C654.719 29.8632 656.634 26.3785 658.575 22.794L659.558 23.3253C657.631 26.883 655.651 30.5016 653.111 33.2208C650.552 35.9609 647.398 37.8178 643.139 37.8145V37.8155L643.136 37.8145L643.133 37.8155V37.8145C639.016 37.8078 636.014 35.8887 633.605 33.089C631.216 30.3111 629.377 26.6248 627.576 23.0235C625.759 19.3895 623.98 15.8404 621.699 13.1905C619.438 10.564 616.72 8.86344 613.012 8.86337C609.303 8.86346 606.561 10.5685 604.263 13.2022C601.945 15.8584 600.12 19.415 598.255 23.0528C596.407 26.6585 594.519 30.3453 592.095 33.1192C589.651 35.9155 586.624 37.8271 582.506 37.8155C578.388 37.8038 575.369 35.8748 572.938 33.0645C570.527 30.2767 568.657 26.5783 566.825 22.963C564.977 19.3154 563.168 15.7498 560.863 13.0841C558.578 10.4407 555.843 8.72574 552.137 8.712C548.429 8.69834 545.616 10.4055 543.212 13.0548C540.791 15.7235 538.827 19.3013 536.822 22.9591C534.834 26.5867 532.805 30.2946 530.272 33.085C527.723 35.8949 524.621 37.8205 520.495 37.8155C520.465 37.8155 520.434 37.8138 520.404 37.8136V37.8155C516.284 37.8104 513.255 35.8917 510.81 33.0929C508.384 30.3163 506.496 26.631 504.647 23.0294C502.782 19.3956 500.956 15.8446 498.638 13.1934C496.339 10.5647 493.595 8.8634 489.884 8.86337C486.173 8.86342 483.428 10.5684 481.129 13.2022C478.811 15.8583 476.984 19.4151 475.118 23.0528C473.269 26.6585 471.381 30.3464 468.955 33.1202C466.51 35.9163 463.481 37.8272 459.361 37.8155C455.241 37.8038 452.221 35.8749 449.789 33.0645C447.376 30.2767 445.505 26.5783 443.673 22.963C441.824 19.3153 440.013 15.7499 437.707 13.0841C435.421 10.4409 432.685 8.72575 428.977 8.712C425.236 8.69827 422.475 10.4331 420.16 13.1173C417.826 15.8244 415.986 19.4486 414.096 23.1417L413.599 22.8868L413.102 22.6329C414.973 18.9756 416.874 15.2181 419.314 12.3888C421.774 9.53673 424.822 7.57954 428.98 7.59482C433.1 7.61001 436.12 9.54178 438.552 12.3536C440.965 15.1432 442.836 18.8426 444.669 22.4581C446.518 26.1056 448.328 29.6701 450.634 32.3341C452.92 34.9755 455.656 36.6877 459.364 36.6983C463.073 36.7089 465.816 35.0126 468.114 32.3849C470.432 29.7345 472.258 26.1808 474.124 22.5431C475.973 18.9374 477.862 15.2472 480.288 12.4679C482.733 9.66639 485.763 7.74624 489.884 7.74618C490.026 7.74618 490.167 7.7485 490.307 7.75302V7.74618C494.314 7.74626 497.261 9.669 499.647 12.464C502.015 15.2372 503.874 18.9205 505.709 22.5206C507.56 26.1527 509.39 29.7046 511.715 32.3575C514.021 34.9885 516.778 36.6936 520.496 36.6983C524.215 36.7028 527.037 34.9883 529.445 32.3341C531.871 29.6606 533.838 26.0805 535.843 22.4229C537.831 18.7954 539.857 15.0895 542.385 12.3038C544.93 9.49867 548.024 7.57972 552.141 7.59482Z" fill="url(#paint0_linear_1259_2376)"/>
<path d="M413 25.1319C428.562 23.5902 443.906 22.002 476.32 22C539.321 21.996 536.241 28.0119 599.08 28C629.048 27.9943 643.874 26.6315 658 25.2064" stroke="url(#paint1_linear_1259_2376)" stroke-width="1.5"/>
<path d="M613.358 16.1123C617.401 16.1076 620.408 16.8716 622.891 18.0332C625.362 19.1897 627.293 20.7319 629.17 22.2295C631.057 23.7353 632.892 25.1962 635.228 26.291C637.552 27.3808 640.396 28.1172 644.288 28.1172C648.113 28.1172 650.925 27.408 653.227 26.3516C655.538 25.2907 657.357 23.8694 659.209 22.3946L659.558 22.8321L659.905 23.2686C658.057 24.7409 656.142 26.2422 653.693 27.3662C651.235 28.4947 648.262 29.2334 644.288 29.2334C640.244 29.2334 637.236 28.4667 634.753 27.3028C632.281 26.144 630.351 24.6 628.474 23.1026C626.586 21.5968 624.752 20.1375 622.417 19.0449C620.093 17.9575 617.251 17.225 613.36 17.2295C609.47 17.234 606.635 17.9728 604.324 19.0655C602.002 20.1632 600.186 21.627 598.315 23.1367C596.455 24.6384 594.54 26.1862 592.081 27.3496C589.611 28.5182 586.612 29.2908 582.569 29.2969C578.526 29.3029 575.517 28.5352 573.031 27.3672C570.556 26.2044 568.62 24.6527 566.736 23.1465C564.843 21.6322 563.001 20.1623 560.657 19.0615C558.387 17.9955 555.625 17.2692 551.885 17.2324C548.156 17.2686 545.408 17.9926 543.151 19.0547C540.828 20.1484 539.004 21.6081 537.126 23.1123C535.259 24.6081 533.338 26.1489 530.879 27.3057C528.408 28.4677 525.416 29.2334 521.392 29.2334C517.367 29.2334 514.373 28.4669 511.902 27.3028C509.442 26.1438 507.522 24.599 505.654 23.1016C503.776 21.5958 501.951 20.1363 499.629 19.044C497.317 17.9569 494.49 17.225 490.62 17.2295C486.75 17.2341 483.931 17.9731 481.633 19.0655C479.323 20.163 477.515 21.6259 475.654 23.1358C473.804 24.6373 471.899 26.186 469.452 27.3496C466.994 28.5186 464.01 29.2908 459.986 29.2969C455.963 29.303 452.968 28.5346 450.494 27.3662C448.031 26.2032 446.105 24.6516 444.231 23.1455C442.347 21.6311 440.515 20.1621 438.184 19.0615C435.863 17.9662 433.025 17.2276 429.146 17.2295C425.24 17.2315 422.364 17.9803 420.003 19.0879C417.631 20.2006 415.757 21.6835 413.84 23.2051L413.492 22.7686L413.145 22.3311C415.052 20.817 417.022 19.253 419.528 18.0772C422.046 16.8962 425.085 16.1144 429.146 16.1123C433.179 16.1103 436.181 16.8815 438.66 18.0518C441.128 19.2168 443.057 20.7692 444.931 22.2754C446.815 23.7899 448.645 25.258 450.971 26.3565C453.286 27.4496 456.116 28.1856 459.985 28.1797C463.855 28.1738 466.674 27.4338 468.973 26.3408C471.282 25.2426 473.09 23.7785 474.951 22.2686C476.802 20.7671 478.706 19.2196 481.153 18.0567C483.612 16.8884 486.596 16.117 490.619 16.1123C494.642 16.1076 497.634 16.8714 500.104 18.0332C502.564 19.1899 504.485 20.733 506.353 22.2305C508.23 23.7363 510.055 25.1973 512.379 26.292C514.691 27.3814 517.52 28.1172 521.392 28.1172C525.263 28.1172 528.091 27.3834 530.403 26.2959C532.726 25.2033 534.55 23.7444 536.428 22.2403C538.295 20.7444 540.215 19.2028 542.675 18.0449C545.023 16.9395 547.842 16.1924 551.571 16.1192V16.1123C551.671 16.1123 551.769 16.1144 551.867 16.1153C551.965 16.1143 552.063 16.1124 552.162 16.1123V16.1192C555.92 16.1887 558.763 16.9384 561.132 18.0508C563.612 19.2156 565.551 20.7681 567.435 22.2744C569.328 23.7889 571.167 25.2578 573.506 26.3565C575.833 27.45 578.678 28.1856 582.568 28.1797C586.458 28.1738 589.293 27.434 591.604 26.3408C593.926 25.2423 595.743 23.7775 597.613 22.2676C599.474 20.766 601.387 19.2184 603.847 18.0557C606.317 16.8878 609.315 16.1171 613.358 16.1123Z" fill="url(#paint2_linear_1259_2376)"/>
<path d="M613.358 16.1123C617.401 16.1076 620.408 16.8716 622.891 18.0332C625.362 19.1897 627.293 20.7319 629.17 22.2295C631.057 23.7353 632.892 25.1962 635.228 26.291C637.552 27.3808 640.396 28.1172 644.288 28.1172C648.113 28.1172 650.925 27.408 653.227 26.3516C655.538 25.2907 657.357 23.8694 659.209 22.3946L659.558 22.8321L659.905 23.2686C658.057 24.7409 656.142 26.2422 653.693 27.3662C651.235 28.4947 648.262 29.2334 644.288 29.2334C640.244 29.2334 637.236 28.4667 634.753 27.3028C632.281 26.144 630.351 24.6 628.474 23.1026C626.586 21.5968 624.752 20.1375 622.417 19.0449C620.093 17.9575 617.251 17.225 613.36 17.2295C609.47 17.234 606.635 17.9728 604.324 19.0655C602.002 20.1632 600.186 21.627 598.315 23.1367C596.455 24.6384 594.54 26.1862 592.081 27.3496C589.611 28.5182 586.612 29.2908 582.569 29.2969C578.526 29.3029 575.517 28.5352 573.031 27.3672C570.556 26.2044 568.62 24.6527 566.736 23.1465C564.843 21.6322 563.001 20.1623 560.657 19.0615C558.387 17.9955 555.625 17.2692 551.885 17.2324C548.156 17.2686 545.408 17.9926 543.151 19.0547C540.828 20.1484 539.004 21.6081 537.126 23.1123C535.259 24.6081 533.338 26.1489 530.879 27.3057C528.408 28.4677 525.416 29.2334 521.392 29.2334C517.367 29.2334 514.373 28.4669 511.902 27.3028C509.442 26.1438 507.522 24.599 505.654 23.1016C503.776 21.5958 501.951 20.1363 499.629 19.044C497.317 17.9569 494.49 17.225 490.62 17.2295C486.75 17.2341 483.931 17.9731 481.633 19.0655C479.323 20.163 477.515 21.6259 475.654 23.1358C473.804 24.6373 471.899 26.186 469.452 27.3496C466.994 28.5186 464.01 29.2908 459.986 29.2969C455.963 29.303 452.968 28.5346 450.494 27.3662C448.031 26.2032 446.105 24.6516 444.231 23.1455C442.347 21.6311 440.515 20.1621 438.184 19.0615C435.863 17.9662 433.025 17.2276 429.146 17.2295C425.24 17.2315 422.364 17.9803 420.003 19.0879C417.631 20.2006 415.757 21.6835 413.84 23.2051L413.492 22.7686L413.145 22.3311C415.052 20.817 417.022 19.253 419.528 18.0772C422.046 16.8962 425.085 16.1144 429.146 16.1123C433.179 16.1103 436.181 16.8815 438.66 18.0518C441.128 19.2168 443.057 20.7692 444.931 22.2754C446.815 23.7899 448.645 25.258 450.971 26.3565C453.286 27.4496 456.116 28.1856 459.985 28.1797C463.855 28.1738 466.674 27.4338 468.973 26.3408C471.282 25.2426 473.09 23.7785 474.951 22.2686C476.802 20.7671 478.706 19.2196 481.153 18.0567C483.612 16.8884 486.596 16.117 490.619 16.1123C494.642 16.1076 497.634 16.8714 500.104 18.0332C502.564 19.1899 504.485 20.733 506.353 22.2305C508.23 23.7363 510.055 25.1973 512.379 26.292C514.691 27.3814 517.52 28.1172 521.392 28.1172C525.263 28.1172 528.091 27.3834 530.403 26.2959C532.726 25.2033 534.55 23.7444 536.428 22.2403C538.295 20.7444 540.215 19.2028 542.675 18.0449C545.023 16.9395 547.842 16.1924 551.571 16.1192V16.1123C551.671 16.1123 551.769 16.1144 551.867 16.1153C551.965 16.1143 552.063 16.1124 552.162 16.1123V16.1192C555.92 16.1887 558.763 16.9384 561.132 18.0508C563.612 19.2156 565.551 20.7681 567.435 22.2744C569.328 23.7889 571.167 25.2578 573.506 26.3565C575.833 27.45 578.678 28.1856 582.568 28.1797C586.458 28.1738 589.293 27.434 591.604 26.3408C593.926 25.2423 595.743 23.7775 597.613 22.2676C599.474 20.766 601.387 19.2184 603.847 18.0557C606.317 16.8878 609.315 16.1171 613.358 16.1123Z" fill="#06AAFF"/>
<path d="M413 22.6198C420.501 28.3258 428.184 33.9924 443.8 34C475.263 34.0152 473.725 10.9545 505.107 11.0001C536.489 11.0457 534.622 33.9648 566.004 34C597.386 34.0351 595.78 11.1199 627.174 11.1199C643.04 11.1199 650.474 16.9603 658 22.7396" stroke="#3CB0F9" stroke-dasharray="4 2"/>
<circle cx="666.963" cy="23.4464" r="12.9627" fill="black"/>
<path d="M115.124 14.2664C117.282 9.74447 123.718 9.74447 125.876 14.2664V14.2664C126.744 16.0862 128.474 17.3432 130.474 17.6067V17.6067C135.441 18.2615 137.43 24.383 133.796 27.8325V27.8325C132.334 29.2207 131.673 31.2546 132.04 33.2373V33.2373C132.952 38.1638 127.745 41.9472 123.341 39.5572V39.5572C121.569 38.5953 119.431 38.5953 117.659 39.5572V39.5572C113.255 41.9472 108.048 38.1638 108.96 33.2373V33.2373C109.327 31.2546 108.666 29.2207 107.204 27.8325V27.8325C103.57 24.383 105.559 18.2615 110.526 17.6067V17.6067C112.526 17.3432 114.256 16.0862 115.124 14.2664V14.2664Z" fill="black"/>
<defs>
<linearGradient id="paint0_linear_1259_2376" x1="413.102" y1="22.7051" x2="659.56" y2="22.7051" gradientUnits="userSpaceOnUse">
<stop stop-color="#1570F4"/>
<stop offset="1" stop-color="#06AAFF"/>
</linearGradient>
<linearGradient id="paint1_linear_1259_2376" x1="658" y1="25" x2="413" y2="25" gradientUnits="userSpaceOnUse">
<stop stop-color="#F0CE2E"/>
<stop offset="1" stop-color="#F25E08"/>
</linearGradient>
<linearGradient id="paint2_linear_1259_2376" x1="413.145" y1="22.7046" x2="659.905" y2="22.7046" gradientUnits="userSpaceOnUse">
<stop stop-color="#F7A0D3"/>
<stop offset="1" stop-color="#F672C6"/>
</linearGradient>
</defs>
</svg>
