<svg width="1920" height="241" viewBox="0 0 1920 241" fill="none" xmlns="http://www.w3.org/2000/svg">
<path d="M0 24.5001C111.5 24.5001 108.785 216.373 224 216.5C339.215 216.627 333.582 24.1193 448.5 24.5001C563.418 24.8808 556.582 216.207 671.5 216.5C786.418 216.794 780.539 25.5001 895.5 25.5001C1010.46 25.5001 1004.54 216.374 1119.5 216.5" stroke="#0D9A3E"/>
<path d="M50 168.5C105.775 168.5 104.417 73.563 162.05 73.5002C219.683 73.4374 216.866 168.688 274.35 168.5C331.835 168.311 328.415 73.6454 385.9 73.5002C443.385 73.355 440.444 168.005 497.95 168.005C555.456 168.005 552.494 73.5628 610 73.5002" stroke="url(#paint0_linear_1259_2274)" stroke-width="3"/>
<path d="M706 24.5001C817.5 24.5001 814.785 216.373 930 216.5C1045.21 216.627 1039.58 24.1193 1154.5 24.5001C1269.42 24.8808 1262.58 216.207 1377.5 216.5C1492.42 216.794 1486.54 25.5001 1601.5 25.5001C1716.46 25.5001 1710.54 216.374 1825.5 216.5" stroke="#0D9A3E"/>
<path d="M118 0.500705C173.775 0.500762 172.417 240.341 230.05 240.5C287.683 240.658 284.866 0.024789 342.35 0.500705C399.835 0.976621 396.415 240.133 453.9 240.5C511.385 240.866 508.444 1.7507 565.95 1.7507C623.456 1.7507 620.494 240.341 678 240.5" stroke="#F7A0D3" stroke-dasharray="4 4"/>
<path d="M566 0.500705C621.775 0.500762 620.417 240.341 678.05 240.5C735.683 240.658 732.866 0.024789 790.35 0.500705C847.835 0.976621 844.415 240.133 901.9 240.5C959.385 240.866 956.444 1.7507 1013.95 1.7507C1071.46 1.7507 1068.49 240.341 1126 240.5" stroke="#F7A0D3" stroke-dasharray="4 4"/>
<path d="M1133 0.500705C1188.77 0.500762 1187.42 240.341 1245.05 240.5C1302.68 240.658 1299.87 0.024789 1357.35 0.500705C1414.83 0.976621 1411.42 240.133 1468.9 240.5C1526.38 240.866 1523.44 1.7507 1580.95 1.7507C1638.46 1.7507 1635.49 240.341 1693 240.5" stroke="#F7A0D3" stroke-dasharray="4 4"/>
<path d="M50 168.5C105.775 168.5 104.417 73.563 162.05 73.5002C219.683 73.4374 216.866 168.688 274.35 168.5C331.835 168.311 328.415 73.6454 385.9 73.5002C443.385 73.355 440.444 168.005 497.95 168.005C555.456 168.005 552.494 73.5628 610 73.5002" stroke="url(#paint1_linear_1259_2274)" stroke-width="3"/>
<path d="M1360 168.5C1415.77 168.5 1414.42 73.563 1472.05 73.5002C1529.68 73.4374 1526.87 168.688 1584.35 168.5C1641.83 168.311 1638.42 73.6454 1695.9 73.5002C1753.38 73.355 1750.44 168.005 1807.95 168.005C1865.46 168.005 1862.49 73.5628 1920 73.5002" stroke="url(#paint2_linear_1259_2274)" stroke-width="3"/>
<path d="M13 140.5C202.933 140.5 198.309 100.527 394.57 100.5C590.831 100.474 581.237 140.579 776.992 140.5C972.748 140.421 961.103 100.561 1156.86 100.5C1352.62 100.439 1342.6 140.292 1538.43 140.292C1734.26 140.292 1724.17 100.526 1920 100.5" stroke="#1570F4" stroke-width="2"/>
<path opacity="0.6" d="M0 120.5L1920 120.5" stroke="black" stroke-width="0.5"/>
<path d="M1846.48 209.5L1848.51 214.963L1853.97 216.984L1848.51 219.006L1846.48 224.468L1844.46 219.006L1839 216.984L1844.46 214.963L1846.48 209.5Z" fill="#00B800"/>
<path d="M1341.48 161.5L1343.51 166.963L1348.97 168.984L1343.51 171.006L1341.48 176.468L1339.46 171.006L1334 168.984L1339.46 166.963L1341.48 161.5Z" fill="#F25E08"/>
<path d="M627.484 66.5L629.506 71.9628L634.968 73.9842L629.506 76.0056L627.484 81.4683L625.463 76.0056L620 73.9842L625.463 71.9628L627.484 66.5Z" fill="#F0CE2E"/>
<defs>
<linearGradient id="paint0_linear_1259_2274" x1="610" y1="121" x2="50" y2="121" gradientUnits="userSpaceOnUse">
<stop stop-color="#F0CE2E"/>
<stop offset="1" stop-color="#F25E08"/>
</linearGradient>
<linearGradient id="paint1_linear_1259_2274" x1="610" y1="121" x2="50" y2="121" gradientUnits="userSpaceOnUse">
<stop stop-color="#F0CE2E"/>
<stop offset="1" stop-color="#F25E08"/>
</linearGradient>
<linearGradient id="paint2_linear_1259_2274" x1="1920" y1="121" x2="1360" y2="121" gradientUnits="userSpaceOnUse">
<stop stop-color="#F0CE2E"/>
<stop offset="1" stop-color="#F25E08"/>
</linearGradient>
</defs>
</svg>
